<svg width="114" height="114" viewBox="0 0 114 114" fill="none" xmlns="http://www.w3.org/2000/svg">
<path d="M60.2907 57.0057C60.2907 51.9574 64.4772 47.8631 69.4388 47.8631C74.4044 47.8631 78.5867 51.9574 78.5867 57.0057C78.5867 62.058 74.4044 66.1492 69.4388 66.1492C64.477 66.1492 60.2907 62.058 60.2907 57.0057ZM69.4386 46.8772C63.9396 46.8772 59.2129 51.4122 59.2129 57.0057C59.2129 62.6001 63.9396 67.1353 69.4386 67.1353C74.942 67.1353 79.6707 62.6001 79.6707 57.0057C79.6707 51.4122 74.942 46.8772 69.4386 46.8772Z" fill="#52397D"/>
<path d="M30.7704 47.3167H29.6418L38.9195 67.1341H39.0241L48.3018 47.3167H47.1777L41.5261 59.4024L38.9752 65.0001L36.4309 59.4024L30.7704 47.3167Z" fill="#52397D"/>
<path d="M94.3564 66.5841H95.3959V57.0057L95.3403 49.3403L111.937 67.1342H112.041V47.3168H111.002V57.0057L111.058 64.6667L94.4588 46.8772H94.3564V66.5841Z" fill="#52397D"/>
<path d="M5.3571 60.1993L8.02643 54.494L10.5687 48.8896L13.1512 54.5059L15.7945 60.2082L5.3571 60.1993ZM10.629 46.8772H10.5157L1.24292 66.5828H2.37325L4.95844 61.0547L16.1842 61.0503L18.7761 66.5828H19.9013L10.629 46.8772Z" fill="#52397D"/>
</svg>
