<svg width="56" height="56" viewBox="0 0 56 56" fill="none" xmlns="http://www.w3.org/2000/svg">
<path d="M55.3831 26.3169C54.5134 12.0765 42.5558 0.712891 27.9166 0.712891C13.2775 0.712891 1.31985 12.0765 0.450195 26.3169C0.450195 26.8923 0.522666 27.4677 0.595137 28.043C1.1749 32.7898 2.98667 37.1771 5.74057 40.8451C10.7411 47.6057 18.7853 51.9929 27.9166 51.9929C15.1618 51.9929 4.72598 42.1396 3.85632 29.7691C3.78385 29.1938 3.78385 28.6184 3.78385 28.043C3.78385 27.4677 3.78385 26.8923 3.85632 26.3169C4.72598 13.9464 15.1618 4.0932 27.9166 4.0932C37.048 4.0932 45.0922 8.48041 50.0927 15.241C52.8466 18.909 54.6584 23.2962 55.2382 28.043C55.3106 28.6184 55.3831 29.1938 55.3831 29.6972C55.3831 29.1219 55.4556 28.5465 55.4556 27.9711C55.4556 27.4677 55.4556 26.8923 55.3831 26.3169Z" fill="#52397D"/>
<path d="M0.450401 29.769C1.32005 44.0094 13.2777 55.373 27.9168 55.373C42.556 55.373 54.5136 44.0094 55.3833 29.769C55.3833 29.1936 55.3108 28.6182 55.2384 28.0429C54.6586 23.296 52.8468 18.9088 50.0929 15.2408C45.0924 8.48022 37.0482 4.09302 27.9168 4.09302C40.6717 4.09302 51.1075 13.9463 51.9772 26.3167C52.0496 26.8921 52.0496 27.4675 52.0496 28.0429C52.0496 28.6182 52.0496 29.1936 51.9772 29.769C51.1075 42.2114 40.6717 51.9927 27.9168 51.9927C18.7855 51.9927 10.7413 47.6055 5.74077 40.8449C2.98688 37.1769 1.17511 32.7897 0.595342 28.0429C0.522871 27.4675 0.450401 26.8921 0.450401 26.3887C0.450401 26.964 0.37793 27.5394 0.37793 28.1148C0.37793 28.6182 0.37793 29.1936 0.450401 29.769Z" fill="#52397D"/>
<path d="M24.5107 5.96313V13.5149H29.8011C31.1056 13.5149 32.1202 12.508 32.1202 11.2134C32.1202 10.5661 31.8303 9.99071 31.3955 9.55918C31.6854 9.19958 31.9027 8.69613 31.9752 8.19268C31.9752 6.97001 30.9606 5.96313 29.7286 5.96313H24.5107ZM26.25 7.5454H29.4387C29.8011 7.5454 30.091 7.83307 30.091 8.19268C30.091 8.55228 29.8011 8.83995 29.4387 8.83995H26.25V7.5454ZM26.25 10.4222H29.5112C29.946 10.4222 30.2359 10.7099 30.2359 11.1414C30.2359 11.573 29.946 11.8607 29.5112 11.8607H26.25V10.4222Z" fill="#52397D"/>
<path d="M27.0473 14.9531L23.2788 22.5049H25.2356L25.8153 21.2103H30.0911L30.6709 22.5049H32.6275L28.7866 14.9531H27.0473ZM27.917 16.8951L29.2214 19.6281H26.6125L27.917 16.8951Z" fill="#52397D"/>
<path d="M30.5256 24.1592H32.6997L28.8588 29.0498V31.7109H27.047V29.0498L23.2061 24.1592H25.3802L27.9891 27.6114L30.5256 24.1592Z" fill="#52397D"/>
<path d="M42.9907 24.1592V31.7109H44.8025V28.8341H46.1794L48.3536 31.7109H50.5277L48.2811 28.7622C49.2232 28.4745 49.948 27.6115 49.948 26.5326C49.948 25.238 48.9334 24.1592 47.6289 24.1592H42.9907ZM44.875 25.7414H47.484C47.8463 25.7414 48.2087 26.1011 48.2087 26.4607C48.2087 26.8203 47.9188 27.1799 47.484 27.1799H44.875V25.7414Z" fill="#52397D"/>
<path d="M5.95801 24.1592V31.7109H11.2484C12.5529 31.7109 13.5675 30.704 13.5675 29.4095C13.5675 28.7622 13.2776 28.1868 12.8427 27.7552C13.1326 27.3956 13.35 26.8922 13.4225 26.3887C13.4225 25.1661 12.4079 24.1592 11.1759 24.1592H5.95801ZM7.69726 25.7414H10.886C11.2483 25.7414 11.5383 26.0291 11.5383 26.3887C11.5383 26.7483 11.2483 27.036 10.886 27.036H7.69726V25.7414ZM7.69726 28.6183H10.9585C11.3933 28.6183 11.6832 28.906 11.6832 29.3375C11.6832 29.769 11.3933 30.0567 10.9585 30.0567H7.69726V28.6183Z" fill="#52397D"/>
<path d="M18.4233 24.1592L14.6548 31.7109H16.6116L17.1913 30.4164H21.4671L22.0468 31.7109H24.0035L20.1626 24.1592H18.4233ZM19.2929 26.1011L20.5974 28.8341H17.9885L19.2929 26.1011Z" fill="#52397D"/>
<path d="M40.5991 24.1592V25.7825H35.5261V27.0528H40.4541V28.6761H35.5261V30.0877H40.5991V31.7109H33.7144V24.1592H40.5991Z" fill="#52397D"/>
<path d="M24.438 42.7148V50.2666H26.2497V47.3898H27.6267L29.8009 50.2666H31.9749L29.7284 47.3178C30.6705 47.0302 31.3952 46.1671 31.3952 45.0883C31.3952 43.7937 30.3806 42.7148 29.0761 42.7148H24.438ZM26.3223 44.2971H28.9312C29.2936 44.2971 29.656 44.6567 29.656 45.0163C29.656 45.3759 29.3661 45.7356 28.9312 45.7356H26.3223V44.2971Z" fill="#52397D"/>
<path d="M31.3955 33.3484V34.9717H26.3225V36.2421H31.2505V37.8653H26.3225V39.2769H31.3955V40.9002H24.5107V33.3484H31.3955Z" fill="#52397D"/>
</svg>
