<svg width="114" height="35" viewBox="0 0 114 35" fill="none" xmlns="http://www.w3.org/2000/svg">
<g clip-path="url(#clip0_251_179)">
<path d="M20.6545 18.1083C21.0245 18.2341 21.4552 18.4211 21.9464 18.6694C22.8077 19.1691 23.5445 19.8527 24.1634 20.7233C24.9034 21.9679 25.2703 23.4608 25.2703 25.202C25.2703 31.1769 21.6976 34.1627 14.5586 34.1627H0.711291C0.341264 34.1627 0.15625 33.9757 0.15625 33.6016V4.85274C0.15625 4.47871 0.341264 4.2917 0.711291 4.2917H15.3019C17.8889 4.2917 19.9782 5.01074 21.5796 6.43916C23.1777 7.8708 23.9816 9.76998 23.9816 12.1335C23.9816 13.5038 23.6721 14.7162 23.0597 15.7738C22.4408 16.8347 21.6402 17.6118 20.6545 18.1083ZM14.3768 29.8678C16.4694 29.8678 18.0069 29.526 18.9926 28.8424C19.9751 28.1588 20.4695 26.9755 20.4695 25.2955C20.4695 23.6156 19.9751 22.4355 18.9926 21.7487C18.0069 21.0651 16.4662 20.7233 14.3768 20.7233H5.69709C5.20266 20.7233 4.95704 20.9103 4.95704 21.2844V29.3132C4.95704 29.6872 5.20266 29.8742 5.69709 29.8742H14.3768V29.8678ZM5.69709 8.58662C5.32707 8.58662 5.14205 8.77363 5.14205 9.14767V15.8673C5.14205 16.2414 5.32707 16.4284 5.69709 16.4284H14.1918C17.3912 16.4284 18.9926 15.1225 18.9926 12.5075C18.9926 9.8925 17.3912 8.58662 14.1918 8.58662H5.69709ZM50.5757 18.1083C50.9457 18.2341 51.3158 18.4211 51.6826 18.6694C52.6651 19.1691 53.4051 19.8527 53.8996 20.7233C54.7608 21.9679 55.1915 23.4608 55.1915 25.202C55.1915 31.1769 51.6188 34.1627 44.4798 34.1627H30.6293C30.2593 34.1627 30.0743 33.9757 30.0743 33.6016V4.85274C30.0743 4.47871 30.2593 4.2917 30.6293 4.2917H45.2199C47.6825 4.2917 49.7431 5.01074 51.4083 6.43916C53.0702 7.8708 53.9028 9.76998 53.9028 12.1335C53.9028 13.5038 53.5933 14.7162 52.9809 15.7738C52.3589 16.8347 51.5582 17.6118 50.5757 18.1083ZM35.4301 8.58662C35.0601 8.58662 34.875 8.77363 34.875 9.14767V15.8673C34.875 16.2414 35.0601 16.4284 35.4301 16.4284H44.1098C47.3093 16.4284 48.9106 15.1225 48.9106 12.5075C48.9106 9.8925 47.3093 8.58662 44.1098 8.58662H35.4301ZM44.2948 29.8678C46.3874 29.8678 47.9249 29.526 48.9106 28.8424C49.8931 28.1588 50.3875 26.9755 50.3875 25.2955C50.3875 23.6156 49.8931 22.4355 48.9106 21.7487C47.9249 21.0651 46.3842 20.7233 44.2948 20.7233H35.4301C35.0601 20.7233 34.875 20.9103 34.875 21.2844V29.3132C34.875 29.6872 35.0601 29.8742 35.4301 29.8742H44.2948V29.8678ZM81.6006 4.66573C81.7218 4.41745 81.8462 4.2917 81.9706 4.2917H86.7714C86.8926 4.2917 87.017 4.35618 87.1414 4.47871C87.2627 4.60446 87.2627 4.73022 87.1414 4.85274L71.814 33.9757C71.6896 34.1014 71.5365 34.1627 71.3515 34.1627C71.1665 34.1627 71.0102 34.1014 70.8889 33.9757L55.5615 4.85274C55.4371 4.73022 55.4052 4.60446 55.469 4.47871C55.5296 4.35618 55.6827 4.2917 55.9315 4.2917H60.5473C60.7929 4.2917 60.9779 4.41745 61.1024 4.66573L70.8889 23.3351C70.8889 23.4608 71.0102 23.5221 71.259 23.5221C71.5046 23.5221 71.6896 23.4608 71.814 23.3351L81.6006 4.66573ZM87.1414 29.4969C87.017 29.7485 86.832 29.871 86.5864 29.871H81.7856C81.6612 29.871 81.5687 29.8097 81.5081 29.684C81.4443 29.5614 81.4156 29.4357 81.4156 29.3099L96.7462 0.187016C96.8674 0.0644883 97.0525 0 97.3013 0C97.5469 0 97.7319 0.0644883 97.8563 0.187016L113.181 29.3099C113.181 29.4357 113.149 29.5614 113.088 29.684C113.024 29.8097 112.932 29.871 112.811 29.871H108.01C107.761 29.871 107.576 29.7485 107.455 29.4969L97.8499 10.8276C97.7255 10.5793 97.5405 10.4536 97.2949 10.4536C97.0461 10.4536 96.8611 10.5793 96.7398 10.8276L87.1414 29.4969Z" fill="#52397D"/>
</g>
<defs>
<clipPath id="clip0_251_179">
<rect width="113.024" height="34.1627" fill="white" transform="translate(0.15625)"/>
</clipPath>
</defs>
</svg>
