<svg width="193" height="180" viewBox="0 0 193 180" fill="none" xmlns="http://www.w3.org/2000/svg">
<mask id="mask0_163_1489" style="mask-type:alpha" maskUnits="userSpaceOnUse" x="0" y="0" width="193" height="180">
<rect width="193" height="180" fill="#D9D9D9"/>
</mask>
<g mask="url(#mask0_163_1489)">
</g>
<path d="M132.855 118.574C140.561 114.54 145.839 106.477 145.839 97.1936V88.3623C148.486 86.3574 150.226 83.2119 150.226 79.6452C150.226 76.0785 148.486 72.9307 145.839 70.928V64.2903C145.839 43.728 129.111 27 108.548 27C87.9861 27 71.2581 43.728 71.2581 64.2903V70.928C68.6104 72.9329 66.871 76.0785 66.871 79.6452C66.871 81.8453 67.5356 83.8853 68.6565 85.605C66.1449 88.0596 64.6774 91.4223 64.6774 95C64.6774 102.258 70.5803 108.161 77.8387 108.161C81.0676 108.161 84.0903 106.999 86.4615 104.928C88.9666 107.65 92.099 109.82 95.6876 111.166L97.5806 111.873V115.161L89.4119 116.914C84.9875 117.861 80.9097 119.84 77.4329 122.663C72.9295 112.829 63.0191 105.968 51.5161 105.968C35.7928 105.968 23 118.761 23 134.484C23 150.207 35.7928 163 51.5161 163H150.226V144.796C150.226 133.277 143.169 122.987 132.855 118.574V118.574ZM141.452 97.1936C141.452 107.339 133.761 115.718 123.903 116.813V114.742C123.903 113.217 123.361 111.829 122.486 110.712C130.62 107.196 136.211 99.4046 136.97 90.6129H139.258C140.008 90.6129 140.743 90.5361 141.452 90.3914V97.1936ZM119.516 114.742V116.935H112.935C111.725 116.935 110.742 115.953 110.742 114.742C110.742 113.531 111.725 112.548 112.935 112.548H117.323C118.533 112.548 119.516 113.531 119.516 114.742ZM139.258 86.2258H137.065V73.0645H139.258C142.886 73.0645 145.839 76.017 145.839 79.6452C145.839 83.2733 142.886 86.2258 139.258 86.2258ZM75.6452 64.2903C75.6452 46.1475 90.4055 31.3871 108.548 31.3871C126.691 31.3871 141.452 46.1475 141.452 64.2903V68.899C140.743 68.7542 140.008 68.6774 139.258 68.6774H137.065V64.2903C137.065 48.567 124.272 35.7742 108.548 35.7742C92.825 35.7742 80.0323 48.567 80.0323 64.2903V68.6774H77.8387C77.0885 68.6774 76.3537 68.7542 75.6452 68.899V64.2903ZM132.627 63.2901C131.342 62.5508 129.874 62.0968 128.29 62.0968H120.749C114.881 62.0968 109.369 59.8111 105.219 55.6631C103.707 54.1539 101.7 53.3226 99.5658 53.3226C96.1219 53.3226 93.0751 55.5183 91.9849 58.7867L91.612 59.9032H91C88.5739 59.9032 86.3497 60.7214 84.5334 62.0595C85.6631 49.7975 95.9969 40.1613 108.548 40.1613C121.514 40.1613 132.096 50.4512 132.627 63.2901ZM77.8387 73.0645H80.0323V86.2258H77.8387C74.2106 86.2258 71.2581 83.2733 71.2581 79.6452C71.2581 76.017 74.2106 73.0645 77.8387 73.0645ZM77.8387 103.774C72.9997 103.774 69.0645 99.839 69.0645 95C69.0645 92.6156 70.0406 90.376 71.7143 88.7396C73.4648 89.9219 75.5728 90.6129 77.8387 90.6129H80.1266C80.4622 94.4999 81.7476 98.1872 83.7744 101.403C82.1666 102.901 80.0893 103.774 77.8387 103.774V103.774ZM101.968 118.71V111.868C101.963 110.052 100.821 108.405 99.1205 107.766L97.2319 107.058C89.5698 104.184 84.4215 96.757 84.4193 88.5729V70.871C84.4193 67.2428 87.3719 64.2903 91 64.2903H94.7751L96.1461 60.1752C96.6374 58.7012 98.0128 57.7097 99.5658 57.7097C100.527 57.7097 101.435 58.0848 102.115 58.7648C107.092 63.7419 113.71 66.4839 120.749 66.4839H128.29C130.71 66.4839 132.677 68.4515 132.677 70.871V88.5729C132.675 96.7548 127.527 104.184 119.865 107.058L117.974 107.769C117.706 107.87 117.456 108.01 117.213 108.161H112.935C109.307 108.161 106.355 111.114 106.355 114.742C106.355 118.37 109.307 121.323 112.935 121.323H121.71C121.879 121.323 122.043 121.301 122.21 121.296C118.917 125.383 113.907 127.903 108.548 127.903C102.793 127.903 97.4205 125.014 94.1719 120.379L101.968 118.71ZM27.3871 134.484C27.3871 121.18 38.2123 110.355 51.5161 110.355C64.82 110.355 75.6452 121.18 75.6452 134.484C75.6452 147.788 64.82 158.613 51.5161 158.613C38.2123 158.613 27.3871 147.788 27.3871 134.484ZM145.839 158.613H131.53L133.131 154.612C134.285 151.723 134.871 148.683 134.871 145.574C134.871 140.755 133.456 136.087 130.784 132.078L130.115 131.075L126.465 133.508L127.134 134.51C129.326 137.798 130.484 141.624 130.484 145.574C130.484 148.123 130.003 150.615 129.058 152.984L126.805 158.613H90.2915L88.0387 152.984C87.0911 150.615 86.6129 148.123 86.6129 145.574C86.6129 141.624 87.7711 137.798 89.9624 134.51L90.6315 133.508L86.9814 131.075L86.3124 132.078C83.6406 136.085 82.2258 140.753 82.2258 145.574C82.2258 148.683 82.8115 151.725 83.9653 154.612L85.5666 158.613H66.6428C74.669 153.561 80.0323 144.647 80.0323 134.484C80.0323 131.937 79.6659 129.48 79.0364 127.131C82.0415 124.347 85.6675 122.378 89.6575 121.402C93.5621 128.05 100.763 132.29 108.548 132.29C116.342 132.29 123.548 128.041 127.45 121.382C138.144 124.01 145.839 133.731 145.839 144.796V158.613Z" fill="#FF0093"/>
<path d="M120.613 95.8774L116.594 94.1226C115.195 97.3208 112.038 99.3871 108.548 99.3871C105.058 99.3871 101.902 97.3208 100.502 94.1226L96.4839 95.8774C98.5787 100.675 103.315 103.774 108.548 103.774C113.782 103.774 118.518 100.675 120.613 95.8774Z" fill="#FF0093"/>
<path d="M107.335 92.5761L109.759 91.3631C110.808 90.8388 111.589 89.9395 111.959 88.8273C112.33 87.7152 112.247 86.5241 111.722 85.4778L110.742 83.5146V79.6451H106.355V84.0322C106.355 84.3722 106.434 84.71 106.585 85.0128L107.798 87.4366L105.374 88.6497L107.335 92.5761Z" fill="#FF0093"/>
<path d="M97.5807 77.4516V81.8387H101.968V77.4516C101.968 73.8235 99.0152 70.871 95.3871 70.871C91.759 70.871 88.8065 73.8235 88.8065 77.4516V81.8387H93.1936V77.4516C93.1936 76.2408 94.1763 75.2581 95.3871 75.2581C96.5979 75.2581 97.5807 76.2408 97.5807 77.4516Z" fill="#FF0093"/>
<path d="M119.516 77.4516C119.516 76.2408 120.499 75.2581 121.71 75.2581C122.921 75.2581 123.903 76.2408 123.903 77.4516V81.8387H128.29V77.4516C128.29 73.8235 125.338 70.871 121.71 70.871C118.082 70.871 115.129 73.8235 115.129 77.4516V81.8387H119.516V77.4516Z" fill="#FF0093"/>
<path d="M65.9255 119.519C65.3355 119.109 64.5831 119.015 63.9053 119.269L46.7298 125.71H36.1613V143.258H46.7298L63.9075 149.701C64.1575 149.793 64.4186 149.839 64.6774 149.839C65.1183 149.839 65.5548 149.705 65.9255 149.448C66.5178 149.038 66.871 148.365 66.871 147.645V121.323C66.871 120.603 66.5178 119.93 65.9255 119.519ZM44.9355 138.871H40.5484V130.097H44.9355V138.871ZM62.4839 144.48L49.3226 139.544V129.426L62.4839 124.49V144.48Z" fill="#FF0093"/>
</svg>
