<svg width="96" height="50" viewBox="0 0 96 50" fill="none" xmlns="http://www.w3.org/2000/svg">
<g clip-path="url(#clip0_251_174)">
<path d="M48.2153 0C37.596 0 28.5123 6.69803 24.9489 15.9765L24.8001 16.3154H25.1871H27.8516H28.0005L28.0749 16.1681C31.4052 8.42203 39.1729 2.9919 48.2153 2.9919C52.9576 2.9919 57.3307 4.49202 60.9128 7.03023C60.7858 7.41932 60.7193 7.80867 60.7193 8.23879C60.7193 10.4527 62.5185 12.2771 64.7533 12.2771C65.1769 12.2771 65.5852 12.1611 65.9739 12.0413C66.901 13.3204 67.7096 14.7038 68.3407 16.1681L68.4152 16.3154H68.5789H71.2732H71.6603L71.5114 15.9765C70.7226 13.8914 69.6256 11.9003 68.311 10.1253C68.6229 9.55483 68.8766 8.93091 68.8766 8.23879C68.8766 6.01031 67.0474 4.20045 64.7979 4.20045C64.078 4.20045 63.434 4.43575 62.8479 4.76052C58.7426 1.79365 53.6873 0 48.2153 0ZM93.051 14.6205V14.8416V18.9536H89.9994C89.2279 18.9536 88.4877 19.1155 87.7964 19.4105C87.7866 19.4142 87.7614 19.4069 87.7517 19.4105V19.44C87.0822 19.7229 86.4781 20.1476 85.9654 20.6485H85.9208C85.4015 21.1522 84.9734 21.7501 84.6704 22.4319C84.3798 23.1101 84.2387 23.8662 84.2387 24.6574C84.2387 25.4312 84.381 26.1445 84.6704 26.8387C84.9774 27.527 85.3926 28.1715 85.9208 28.6957C86.4497 29.2169 87.0529 29.6024 87.7517 29.9043L87.7964 29.9338C88.4969 30.2218 89.217 30.3612 89.9995 30.3612C90.7819 30.3612 91.5171 30.2218 92.2174 29.9338H92.2472V29.9043C92.9467 29.6021 93.5354 29.2188 94.0484 28.6957C94.5774 28.1707 94.98 27.5295 95.269 26.8387C95.5768 26.1433 95.7602 25.4328 95.7602 24.6574V14.8416V14.6205H95.4923H93.319H93.051H93.051ZM6.26737 18.9536C5.53247 18.9536 4.8069 19.1254 4.09405 19.4105C3.39114 19.6818 2.75037 20.0924 2.18868 20.6485C1.62552 21.2049 1.21218 21.8099 0.938284 22.5056C0.664805 23.197 0.521484 23.917 0.521484 24.6574C0.521484 25.3839 0.665067 26.1185 0.938284 26.8092C1.21219 27.5037 1.62569 28.1383 2.18868 28.6957C2.74936 29.2496 3.39308 29.6468 4.09405 29.9338C4.80606 30.2022 5.5345 30.3612 6.26737 30.3612C7.0014 30.3612 7.7137 30.2029 8.41091 29.9338C9.12778 29.6471 9.78444 29.2505 10.346 28.6957L11.0754 27.9441L11.269 27.7525L11.1201 27.5609L9.58688 26.0576L9.39336 25.866L9.21473 26.0576L8.44068 26.8092C8.15268 27.1089 7.83259 27.3385 7.45822 27.4872C7.07682 27.6378 6.67818 27.7083 6.26737 27.7083C5.41188 27.7083 4.70688 27.416 4.09405 26.8092C3.79059 26.5088 3.56133 26.1646 3.40931 25.7923C3.25778 25.4132 3.18603 25.046 3.18603 24.6574C3.18603 24.2688 3.25795 23.8558 3.40931 23.4783C3.56081 23.1072 3.79239 22.7909 4.09405 22.5056C4.39882 22.2038 4.71575 22.0063 5.09139 21.8571C5.47247 21.7062 5.87488 21.636 6.26737 21.636C6.65985 21.636 7.03264 21.7062 7.41356 21.8571C7.79018 22.0063 8.13569 22.2036 8.44068 22.5056L9.21473 23.2573L9.39336 23.4489L9.58688 23.2573L11.1201 21.7539L11.269 21.5623L11.0754 21.4149L10.346 20.6485C9.78343 20.0915 9.12964 19.6815 8.41091 19.4105C7.71284 19.1247 7.00343 18.9536 6.26737 18.9536ZM17.7442 18.9536C17.0088 18.9536 16.2558 19.124 15.5412 19.4105C14.8379 19.6819 14.227 20.0927 13.6656 20.6485C13.104 21.2046 12.6892 21.8095 12.4152 22.5056C12.1434 23.1959 11.9984 23.9318 11.9984 24.6574C11.9984 25.3842 12.1441 26.1032 12.4152 26.8092C12.6891 27.5038 13.1036 28.1406 13.6656 28.6957C14.2111 29.2359 14.8425 29.6472 15.5412 29.9338C16.2419 30.2214 16.977 30.3612 17.7442 30.3612C18.5115 30.3612 19.2179 30.2215 19.9176 29.9338C20.6189 29.6472 21.2477 29.2357 21.7932 28.6957L22.5523 27.9441L22.7458 27.7525L22.5523 27.5609L21.034 26.0576L20.8405 25.866L20.6916 26.0576L19.9176 26.8092C19.4271 27.2937 18.8593 27.5744 18.2057 27.6788C17.704 27.7504 17.2531 27.6043 16.7916 27.443L22.5523 21.7539L22.7458 21.5623L22.5523 21.4149L21.7932 20.6485C21.2308 20.0918 20.6069 19.6816 19.8878 19.4105C19.1881 19.1233 18.4797 18.9536 17.7442 18.9536ZM29.1913 18.9536C28.4076 18.9536 27.6751 19.1055 26.9734 19.4105C26.2749 19.699 25.643 20.1248 25.1127 20.6485C24.6008 21.1566 24.1975 21.7428 23.892 22.4319C23.6 23.1104 23.4752 23.8665 23.4752 24.6574V30.0959V30.3612H23.6985H25.9016H26.1398V30.0959V24.6574C26.1398 24.2339 26.2128 23.8359 26.3631 23.4783C26.5311 23.1003 26.747 22.774 27.018 22.5056C27.3058 22.2196 27.6388 22.0066 28.0005 21.8571C28.378 21.6931 28.7667 21.636 29.1913 21.636C29.616 21.636 30.0359 21.6932 30.412 21.8571C30.7893 22.0065 31.0954 22.2236 31.3647 22.5056L31.3944 22.5351C31.679 22.8014 31.897 23.105 32.0494 23.4783C32.2136 23.8346 32.2727 24.237 32.2727 24.6574V30.0959V30.3612H32.5406H34.7139H34.9819V30.0959V24.6574C34.9819 23.8646 34.7997 23.1112 34.4907 22.4319C34.2002 21.7395 33.8009 21.1577 33.27 20.6485C32.7399 20.1249 32.1377 19.699 31.4391 19.4105C30.7513 19.1043 29.9903 18.9536 29.1913 18.9536ZM41.5465 18.9536C40.8104 18.9536 40.086 19.1254 39.3732 19.4105C38.669 19.6818 38.0284 20.0922 37.4678 20.6485C36.9076 21.2045 36.4766 21.8094 36.2025 22.5056C35.9305 23.1966 35.7857 23.9168 35.7857 24.6574C35.7857 25.3842 35.9307 26.1189 36.2025 26.8092C36.4766 27.5042 36.9078 28.1387 37.4678 28.6957C38.0274 29.2498 38.6709 29.6468 39.3732 29.9338C40.0852 30.2022 40.8124 30.3612 41.5465 30.3612C42.2793 30.3612 42.9779 30.2029 43.6751 29.9338C44.392 29.6471 45.0189 29.2505 45.5805 28.6957H45.6252L46.3397 27.9441L46.5332 27.7525L46.3397 27.5609L44.8511 26.0576L44.6725 25.866L44.479 26.0576L43.7198 26.8092C43.4304 27.1092 43.098 27.3385 42.7225 27.4872C42.3439 27.6376 41.9573 27.7083 41.5465 27.7083C40.691 27.7083 39.9846 27.4157 39.3732 26.8092C39.0679 26.5092 38.8393 26.1646 38.6884 25.7923C38.5359 25.4135 38.4503 25.046 38.4503 24.6574C38.4503 24.2688 38.5361 23.8555 38.6884 23.4783C38.8388 23.1073 39.025 22.7904 39.3285 22.5056H39.3732C39.6765 22.2041 39.9788 22.0063 40.3556 21.8571C40.7351 21.7063 41.154 21.636 41.5465 21.636C41.939 21.636 42.2967 21.7062 42.6778 21.8571C43.0544 22.0063 43.4134 22.2033 43.7198 22.5056L44.479 23.2573L44.6725 23.4489L44.8511 23.2573L46.3397 21.7539L46.5332 21.5623L46.3397 21.4149L45.6252 20.6485C45.0625 20.0915 44.3939 19.6815 43.6751 19.4105C42.9771 19.1247 42.2814 18.9536 41.5465 18.9536ZM52.9787 18.9536C52.1946 18.9536 51.4621 19.1057 50.7607 19.4105C50.0607 19.6978 49.474 20.1232 48.9447 20.6485C48.4328 21.1554 47.985 21.7426 47.6794 22.4319C47.3887 23.1103 47.2626 23.8676 47.2626 24.6574C47.2626 25.4321 47.39 26.1444 47.6794 26.8387C47.9847 27.526 48.4345 28.173 48.9447 28.6957C49.4729 29.2187 50.0625 29.6014 50.7607 29.9043V29.9338C51.4613 30.2219 52.1965 30.3612 52.9787 30.3612C53.7773 30.3612 54.5399 30.2229 55.2264 29.9338V29.9043C55.9248 29.6013 56.5293 29.2186 57.0574 28.6957C57.5881 28.1715 58.0325 27.5291 58.3227 26.8387C58.629 26.1436 58.7692 25.434 58.7692 24.6574C58.7692 23.8658 58.6304 23.1111 58.3227 22.4319C58.0322 21.7395 57.5899 21.1568 57.0574 20.6485C56.5282 20.1234 55.9265 19.6979 55.2264 19.4105C54.539 19.1045 53.7791 18.9536 52.9787 18.9536ZM63.1159 18.9536C62.6254 18.9536 62.1564 19.0721 61.7166 19.2631C61.2956 19.4379 60.9172 19.6567 60.6002 19.9706C60.2831 20.2845 60.0328 20.6756 59.841 21.1054C59.6656 21.5245 59.5731 21.9789 59.5731 22.4614C59.5731 22.9439 59.6672 23.3973 59.841 23.8321V23.8615C60.0326 24.2729 60.2876 24.6247 60.6002 24.9522C60.9151 25.2627 61.2977 25.5292 61.7166 25.7186C62.1551 25.8922 62.6285 25.9839 63.1159 25.9839H67.5369C67.8098 25.9839 67.9803 26.0692 68.1472 26.2344C68.3159 26.4024 68.4152 26.5876 68.4152 26.8387C68.4152 27.1082 68.313 27.2789 68.1472 27.443C67.9804 27.6091 67.8098 27.7083 67.5369 27.7083H60.9128H60.6448V27.9441V30.0959V30.3612H60.9128H67.5369C68.0242 30.3612 68.4975 30.271 68.9213 30.0959C69.3541 29.906 69.7059 29.6567 70.0228 29.3442C70.3549 29.0141 70.6058 28.6286 70.782 28.2094C70.9751 27.7737 71.0946 27.3243 71.0946 26.8387C71.0946 26.3531 70.9766 25.9035 70.782 25.4828C70.6059 25.0455 70.36 24.6634 70.0228 24.3479C69.7166 24.0447 69.3369 23.8125 68.9213 23.6405C68.9047 23.6336 68.8934 23.6035 68.8767 23.5962V23.6405C68.4608 23.4577 68.0144 23.3309 67.5369 23.3309H63.1159C62.8631 23.3309 62.673 23.2766 62.5056 23.1099C62.3319 22.925 62.2823 22.711 62.2823 22.4614C62.2823 22.2117 62.3363 22.0247 62.5056 21.8571C62.673 21.6904 62.8631 21.636 63.1159 21.636H69.7549H70.0228V21.3707V19.2189V18.9536H69.7549H63.1159H63.1159ZM71.9282 18.9536V19.2189V24.6574C71.9282 25.4324 72.0555 26.1456 72.345 26.8387C72.6513 27.5267 73.0542 28.1717 73.5656 28.6957C74.0938 29.2174 74.7439 29.6024 75.4412 29.9043V29.9338C76.1416 30.2218 76.8607 30.3612 77.6443 30.3612C78.442 30.3612 79.2046 30.2227 79.892 29.9338V29.9043C80.5882 29.6024 81.195 29.2172 81.723 28.6957C82.2519 28.1708 82.6545 27.531 82.9436 26.8387C83.2515 26.1443 83.4051 25.434 83.4051 24.6574V19.2189V18.9536H83.1818H80.9638H80.7405V19.2189V24.6574C80.7405 25.0783 80.6391 25.4487 80.4726 25.8217C80.3213 26.1963 80.1043 26.5254 79.8176 26.8092C79.5467 27.0785 79.2478 27.3208 78.8649 27.4872C78.4861 27.6372 78.0707 27.7083 77.6443 27.7083C77.2295 27.7083 76.8356 27.6281 76.4683 27.4872C76.4569 27.4824 76.435 27.492 76.4237 27.4872C76.0671 27.3224 75.755 27.0761 75.471 26.8092C75.2072 26.5288 74.9962 26.1922 74.8309 25.8217C74.6794 25.4466 74.5927 25.0809 74.5927 24.6574V19.2189V18.9536H74.3248H72.1515H71.9282ZM17.5954 21.6213C17.9674 21.6386 18.324 21.7402 18.6672 21.8571C18.4752 22.0434 18.2859 22.2005 18.0122 22.4614C17.6035 22.8661 17.1745 23.292 16.7171 23.7436L15.4667 25.0406C15.2169 25.2887 15.0564 25.4323 14.8862 25.6007C14.778 25.2926 14.6629 24.9896 14.6629 24.6574C14.6629 23.8117 14.9287 23.1108 15.5412 22.5056C16.0303 22.0213 16.5742 21.7264 17.2084 21.636C17.3359 21.6185 17.4714 21.6155 17.5954 21.6213ZM52.9787 21.636C53.4033 21.636 53.8238 21.6923 54.1993 21.8571C54.5762 22.0053 54.8828 22.2236 55.152 22.5056H55.1966C55.4805 22.7723 55.6845 23.1043 55.8367 23.4783C55.9998 23.8334 56.0749 24.237 56.0749 24.6574C56.0749 25.0778 56.0014 25.4477 55.8367 25.8217C55.684 26.1958 55.4834 26.5536 55.1966 26.8387C54.9256 27.1071 54.5822 27.3208 54.1993 27.4872C53.8221 27.6371 53.4064 27.7083 52.9787 27.7083C52.5522 27.7083 52.18 27.637 51.8027 27.4872C51.4188 27.3204 51.0954 27.0806 50.8054 26.8092C50.5411 26.5274 50.2861 26.1916 50.1206 25.8217H50.1504C49.9989 25.4466 49.9271 25.0809 49.9271 24.6574C49.9271 24.2339 50.0002 23.8345 50.1504 23.4783H50.1206C50.29 23.0988 50.5343 22.774 50.8054 22.5056C51.0934 22.2204 51.4249 22.0056 51.8027 21.8571C52.1783 21.6923 52.5554 21.636 52.9787 21.636H52.9787ZM89.9994 21.636H93.051V24.6574C93.051 25.077 92.9932 25.4484 92.8277 25.8217C92.675 26.1969 92.4291 26.527 92.143 26.8092C91.8721 27.0785 91.5732 27.3208 91.1903 27.4872C90.8315 27.6366 90.4263 27.7083 89.9994 27.7083C89.5829 27.7083 89.1901 27.6289 88.8235 27.4872C88.8121 27.4824 88.7898 27.492 88.7788 27.4872C88.4073 27.3221 88.0789 27.0746 87.7964 26.8092C87.5331 26.5302 87.3068 26.1923 87.1414 25.8217C86.9899 25.4466 86.9181 25.0796 86.9181 24.6574C86.9181 24.2339 86.9913 23.8343 87.1414 23.4783C87.3107 23.0979 87.5251 22.7742 87.7964 22.5056C88.0847 22.2212 88.4009 22.0068 88.7788 21.8571H88.8235C89.1995 21.6933 89.5735 21.636 89.9994 21.636ZM24.6066 33.2941L24.7703 33.6036C28.3262 42.9138 37.3755 49.5359 48.0218 49.5359C58.6456 49.5359 67.7893 42.8823 71.3625 33.6036L71.4667 33.2941H71.1244H68.3854H68.1919L68.1473 33.4563C64.7877 41.1562 57.0316 46.5882 48.0218 46.5882C38.9892 46.5882 31.2424 41.1834 27.8963 33.4563L27.8516 33.2941H27.6581H24.9936H24.6066Z" fill="#52397D"/>
<path d="M64.7978 6.08691C63.6094 6.08691 62.6245 7.01907 62.6245 8.19451C62.6245 9.36995 63.6095 10.3168 64.7978 10.3168C65.9874 10.3168 66.9265 9.36995 66.9265 8.19451C66.9265 7.01907 65.9874 6.08691 64.7978 6.08691Z" fill="#52397D"/>
</g>
<defs>
<clipPath id="clip0_251_174">
<rect width="95.2387" height="49.5359" fill="white" transform="translate(0.521484)"/>
</clipPath>
</defs>
</svg>
