<svg width="128" height="28" viewBox="0 0 128 28" fill="none" xmlns="http://www.w3.org/2000/svg">
<g clip-path="url(#clip0_251_187)">
<path d="M41.2805 11.729C40.7264 12.4771 39.7994 13.7776 39.2352 14.5372C38.9488 14.9235 38.4315 15.6249 40.1464 15.6249C41.9608 15.6249 49.1753 15.6249 49.1753 15.6249C49.1753 15.6249 50.6305 13.651 51.8505 12.0002C53.5098 9.75449 51.9941 5.08179 46.0616 5.08179C40.7517 5.08179 22.6981 5.08179 22.6981 5.08179L18.6471 10.5695C18.6471 10.5695 39.6479 10.5695 40.7257 10.5695C41.8403 10.5695 41.8252 10.9924 41.2805 11.729ZM34.6475 16.9786C32.9326 16.9786 33.4499 16.2758 33.7363 15.8896C34.3004 15.13 35.2427 13.8431 35.7967 13.095C36.3422 12.3584 36.3566 11.9355 35.2405 11.9355C34.1634 11.9355 25.1431 11.9355 25.1431 11.9355L17.0072 22.9598C17.0072 22.9598 31.538 22.9598 36.8479 22.9598C43.4008 22.9598 47.0492 18.5158 48.174 16.9793C48.174 16.9786 36.4612 16.9786 34.6475 16.9786ZM47.5542 22.9598H59.1934L63.6058 16.9779L51.9681 16.9793C51.9645 16.9786 47.5542 22.9598 47.5542 22.9598ZM77.5847 5.08179L73.1203 11.1277H67.9259L72.3881 5.08179H60.7525L52.968 15.6249H81.4365L89.2188 5.08179H77.5847ZM64.3879 22.9598H76.0227L80.4373 16.9793H68.8025C68.7981 16.9786 64.3879 22.9598 64.3879 22.9598ZM0.399414 19.338V20.6083H16.609L17.5454 19.338H0.399414ZM19.2878 16.9786H0.399414V18.2475H18.3491L19.2878 16.9786ZM0.399414 22.9598H14.8725L15.8046 21.6966H0.399414V22.9598ZM110.112 20.6076H127.193V19.3373H111.05L110.112 20.6076ZM108.377 22.9598H127.193V21.6966H109.308L108.377 22.9598ZM112.789 16.9786L111.854 18.2489H127.193V16.9786H112.789ZM97.5494 15.6249L105.333 5.08179H93.0101C93.0057 5.08179 85.2205 15.6249 85.2205 15.6249H97.5494ZM84.2228 16.9786C84.2228 16.9786 83.3722 18.1374 82.9588 18.6956C81.4978 20.6637 82.79 22.9598 87.5588 22.9598C93.0678 22.9598 106.245 22.9598 106.245 22.9598L110.66 16.9793H84.2228V16.9786Z" fill="#52397D"/>
</g>
<defs>
<clipPath id="clip0_251_187">
<rect width="126.794" height="27.8995" fill="white" transform="translate(0.399414 0.0717773)"/>
</clipPath>
</defs>
</svg>
