<svg width="193" height="180" viewBox="0 0 193 180" fill="none" xmlns="http://www.w3.org/2000/svg">
<mask id="mask0_163_1488" style="mask-type:alpha" maskUnits="userSpaceOnUse" x="0" y="0" width="193" height="180">
<rect width="193" height="180" fill="#D9D9D9"/>
</mask>
<g mask="url(#mask0_163_1488)">
</g>
<mask id="path-2-inside-1_163_1488" fill="white">
<path d="M158.492 113.155C156.963 109.687 152.897 108.108 149.429 109.637L149.291 109.698C149.063 109.798 148.834 109.894 148.606 109.993V95.8393C148.606 94.8037 147.766 93.9645 146.731 93.9645C145.695 93.9645 144.856 94.8037 144.856 95.8393V111.549C143.271 112.175 141.675 112.764 140.07 113.321V49.6499C140.07 49.1537 140.474 48.7497 140.97 48.7497H143.956C144.452 48.7497 144.856 49.1534 144.856 49.6499V87.8492C144.856 88.8848 145.695 89.724 146.731 89.724C147.766 89.724 148.606 88.8848 148.606 87.8492V49.6499C148.606 47.0858 146.52 45 143.956 45H140.97C138.406 45 136.32 47.0858 136.32 49.6499V49.7064H133.097C132.061 49.7064 131.222 50.5456 131.222 51.5813C131.222 52.6169 132.061 53.4561 133.097 53.4561H136.32V93.3163H64.7591V53.4559H125.107C126.143 53.4559 126.982 52.6167 126.982 51.581C126.982 50.5453 126.143 49.7062 125.107 49.7062H64.7591V49.6497C64.7591 47.0858 62.6732 45 60.1094 45H57.1236C54.5598 45 52.474 47.0858 52.474 49.6499V109.996C52.245 109.896 52.0153 109.798 51.787 109.697L51.6535 109.638C49.9734 108.897 48.105 108.854 46.3929 109.518C44.681 110.182 43.3301 111.472 42.5887 113.153C41.8475 114.833 41.8047 116.701 42.4687 118.413C43.1324 120.125 44.4233 121.476 46.1019 122.217L46.2362 122.276C52.7335 125.144 59.3812 127.478 66.1517 129.273L89.747 143.633L58.63 162.57C57.3466 163.351 56.4442 164.585 56.089 166.045C55.7337 167.505 55.9685 169.016 56.7494 170.299C57.7788 171.99 59.5762 173 61.5576 173C62.5865 173 63.5964 172.716 64.4784 172.18L100.566 150.217L136.653 172.18C137.534 172.716 138.544 173 139.573 173C141.555 173 143.352 171.99 144.381 170.299C145.163 169.016 145.397 167.505 145.042 166.045C144.687 164.585 143.785 163.351 142.501 162.57L111.384 143.632L135.017 129.25C141.756 127.458 148.373 125.132 154.84 122.277L154.974 122.218C158.443 120.689 160.021 116.623 158.492 113.155V113.155ZM56.2237 49.6499C56.2237 49.1537 56.6274 48.7497 57.1236 48.7497H60.1094C60.6056 48.7497 61.0094 49.1534 61.0094 49.6499V113.316C59.4005 112.76 57.8046 112.17 56.2237 111.547V49.6499ZM77.4202 131.741C80.5087 132.278 83.6185 132.708 86.7478 133.028L96.9593 139.243L93.353 141.438L77.4202 131.741ZM100.565 137.048L94.9182 133.611C96.7863 133.688 98.6601 133.728 100.54 133.728C102.438 133.728 104.33 133.687 106.217 133.609L100.565 137.048ZM140.552 165.774C140.98 166.034 141.28 166.445 141.399 166.932C141.517 167.418 141.439 167.922 141.178 168.35C140.835 168.914 140.235 169.251 139.573 169.251C139.232 169.251 138.896 169.156 138.602 168.977L104.172 148.022L107.778 145.827L140.552 165.774ZM62.5288 168.977C62.2345 169.156 61.8985 169.25 61.5576 169.25C60.8959 169.25 60.2957 168.914 59.9524 168.35C59.692 167.922 59.614 167.418 59.7322 166.931C59.8507 166.445 60.1514 166.034 60.5794 165.773L114.393 133.022C117.526 132.7 120.639 132.268 123.731 131.728L62.5288 168.977ZM153.462 118.787L153.327 118.846C136.593 126.233 118.833 129.978 100.54 129.978C82.2466 129.978 64.4856 126.233 47.7513 118.846L47.6166 118.786C46.8531 118.449 46.2664 117.835 45.9647 117.057C45.663 116.279 45.6825 115.43 46.0192 114.666C46.3562 113.902 46.9704 113.316 47.7486 113.014C48.5268 112.712 49.3755 112.732 50.1394 113.069L50.2729 113.128C56.9784 116.088 64.0064 118.467 71.1619 120.199C72.1688 120.443 73.1817 119.824 73.4252 118.818C73.6687 117.812 73.0505 116.799 72.0441 116.555C69.5972 115.962 67.1664 115.29 64.7588 114.545V97.066H136.32V114.555C118.109 120.212 98.8061 121.471 79.77 118.161C78.7491 117.982 77.7792 118.666 77.6017 119.687C77.4244 120.707 78.1074 121.678 79.1276 121.855C86.2895 123.101 93.486 123.719 100.653 123.719C117.865 123.719 134.897 120.151 150.803 113.129L150.94 113.069C152.518 112.376 154.366 113.091 155.06 114.668C155.756 116.244 155.038 118.092 153.462 118.787V118.787Z"/>
</mask>
<path d="M158.492 113.155C156.963 109.687 152.897 108.108 149.429 109.637L149.291 109.698C149.063 109.798 148.834 109.894 148.606 109.993V95.8393C148.606 94.8037 147.766 93.9645 146.731 93.9645C145.695 93.9645 144.856 94.8037 144.856 95.8393V111.549C143.271 112.175 141.675 112.764 140.07 113.321V49.6499C140.07 49.1537 140.474 48.7497 140.97 48.7497H143.956C144.452 48.7497 144.856 49.1534 144.856 49.6499V87.8492C144.856 88.8848 145.695 89.724 146.731 89.724C147.766 89.724 148.606 88.8848 148.606 87.8492V49.6499C148.606 47.0858 146.52 45 143.956 45H140.97C138.406 45 136.32 47.0858 136.32 49.6499V49.7064H133.097C132.061 49.7064 131.222 50.5456 131.222 51.5813C131.222 52.6169 132.061 53.4561 133.097 53.4561H136.32V93.3163H64.7591V53.4559H125.107C126.143 53.4559 126.982 52.6167 126.982 51.581C126.982 50.5453 126.143 49.7062 125.107 49.7062H64.7591V49.6497C64.7591 47.0858 62.6732 45 60.1094 45H57.1236C54.5598 45 52.474 47.0858 52.474 49.6499V109.996C52.245 109.896 52.0153 109.798 51.787 109.697L51.6535 109.638C49.9734 108.897 48.105 108.854 46.3929 109.518C44.681 110.182 43.3301 111.472 42.5887 113.153C41.8475 114.833 41.8047 116.701 42.4687 118.413C43.1324 120.125 44.4233 121.476 46.1019 122.217L46.2362 122.276C52.7335 125.144 59.3812 127.478 66.1517 129.273L89.747 143.633L58.63 162.57C57.3466 163.351 56.4442 164.585 56.089 166.045C55.7337 167.505 55.9685 169.016 56.7494 170.299C57.7788 171.99 59.5762 173 61.5576 173C62.5865 173 63.5964 172.716 64.4784 172.18L100.566 150.217L136.653 172.18C137.534 172.716 138.544 173 139.573 173C141.555 173 143.352 171.99 144.381 170.299C145.163 169.016 145.397 167.505 145.042 166.045C144.687 164.585 143.785 163.351 142.501 162.57L111.384 143.632L135.017 129.25C141.756 127.458 148.373 125.132 154.84 122.277L154.974 122.218C158.443 120.689 160.021 116.623 158.492 113.155V113.155ZM56.2237 49.6499C56.2237 49.1537 56.6274 48.7497 57.1236 48.7497H60.1094C60.6056 48.7497 61.0094 49.1534 61.0094 49.6499V113.316C59.4005 112.76 57.8046 112.17 56.2237 111.547V49.6499ZM77.4202 131.741C80.5087 132.278 83.6185 132.708 86.7478 133.028L96.9593 139.243L93.353 141.438L77.4202 131.741ZM100.565 137.048L94.9182 133.611C96.7863 133.688 98.6601 133.728 100.54 133.728C102.438 133.728 104.33 133.687 106.217 133.609L100.565 137.048ZM140.552 165.774C140.98 166.034 141.28 166.445 141.399 166.932C141.517 167.418 141.439 167.922 141.178 168.35C140.835 168.914 140.235 169.251 139.573 169.251C139.232 169.251 138.896 169.156 138.602 168.977L104.172 148.022L107.778 145.827L140.552 165.774ZM62.5288 168.977C62.2345 169.156 61.8985 169.25 61.5576 169.25C60.8959 169.25 60.2957 168.914 59.9524 168.35C59.692 167.922 59.614 167.418 59.7322 166.931C59.8507 166.445 60.1514 166.034 60.5794 165.773L114.393 133.022C117.526 132.7 120.639 132.268 123.731 131.728L62.5288 168.977ZM153.462 118.787L153.327 118.846C136.593 126.233 118.833 129.978 100.54 129.978C82.2466 129.978 64.4856 126.233 47.7513 118.846L47.6166 118.786C46.8531 118.449 46.2664 117.835 45.9647 117.057C45.663 116.279 45.6825 115.43 46.0192 114.666C46.3562 113.902 46.9704 113.316 47.7486 113.014C48.5268 112.712 49.3755 112.732 50.1394 113.069L50.2729 113.128C56.9784 116.088 64.0064 118.467 71.1619 120.199C72.1688 120.443 73.1817 119.824 73.4252 118.818C73.6687 117.812 73.0505 116.799 72.0441 116.555C69.5972 115.962 67.1664 115.29 64.7588 114.545V97.066H136.32V114.555C118.109 120.212 98.8061 121.471 79.77 118.161C78.7491 117.982 77.7792 118.666 77.6017 119.687C77.4244 120.707 78.1074 121.678 79.1276 121.855C86.2895 123.101 93.486 123.719 100.653 123.719C117.865 123.719 134.897 120.151 150.803 113.129L150.94 113.069C152.518 112.376 154.366 113.091 155.06 114.668C155.756 116.244 155.038 118.092 153.462 118.787V118.787Z" fill="#FF0093" stroke="#FF0093" stroke-width="2" mask="url(#path-2-inside-1_163_1488)"/>
</svg>
