<svg width="25" height="25" viewBox="0 0 25 25" fill="none" xmlns="http://www.w3.org/2000/svg">
<path d="M13.7256 12.3717C13.0729 12.8069 11.9274 12.807 11.2745 12.3717C11.2744 12.3716 11.2743 12.3715 11.2742 12.3715L0.147855 4.9539C0.512799 3.89842 1.51593 3.13806 2.69387 3.13806H22.3065C23.4845 3.13806 24.4875 3.89842 24.8525 4.9539L13.726 12.3715C13.7258 12.3716 13.7257 12.3716 13.7256 12.3717Z" fill="#553B81"/>
<path d="M10.4615 14.9744C10.4617 14.9745 10.4618 14.9746 10.4618 14.9746C11.0332 15.3555 11.7667 15.546 12.5 15.546C13.2334 15.546 13.9666 15.3556 14.5381 14.9746C14.5382 14.9745 14.5382 14.9745 14.5383 14.9744L25 8V20.5524C25 22.0377 23.7916 23.246 22.3063 23.246H2.69358C1.20831 23.246 6.5717e-07 22.0377 6.5717e-07 20.5524V8L10.4615 14.9744Z" fill="#553B81"/>
</svg>
