<svg width="14" height="24" viewBox="0 0 14 24" fill="none" xmlns="http://www.w3.org/2000/svg">
<path d="M4.12002 13.56C4.03002 13.56 2.05002 13.56 1.15002 13.56C0.67002 13.56 0.52002 13.38 0.52002 12.93C0.52002 11.73 0.52002 10.5 0.52002 9.3C0.52002 8.82 0.70002 8.67 1.15002 8.67H4.12002C4.12002 8.58 4.12002 6.84 4.12002 6.03C4.12002 4.83 4.33002 3.69 4.93002 2.64C5.56002 1.56 6.46002 0.839998 7.60002 0.419999C8.35002 0.149999 9.10002 0.0299988 9.91002 0.0299988H12.85C13.27 0.0299988 13.45 0.209999 13.45 0.629999V4.05C13.45 4.47 13.27 4.65 12.85 4.65C12.04 4.65 11.23 4.65 10.42 4.68C9.61002 4.68 9.19002 5.07 9.19002 5.91C9.16002 6.81 9.19002 7.68 9.19002 8.61H12.67C13.15 8.61 13.33 8.79 13.33 9.27V12.9C13.33 13.38 13.18 13.53 12.67 13.53C11.59 13.53 9.28002 13.53 9.19002 13.53V23.31C9.19002 23.82 9.04002 24 8.50002 24C7.24002 24 6.01002 24 4.75002 24C4.30002 24 4.12002 23.82 4.12002 23.37C4.12002 20.22 4.12002 13.65 4.12002 13.56V13.56Z" fill="#553B81"/>
</svg>
