<svg width="128" height="31" viewBox="0 0 128 31" fill="none" xmlns="http://www.w3.org/2000/svg">
<g clip-path="url(#clip0_251_149)">
<path d="M111.412 9.60813C112.577 9.60813 113.522 8.67139 113.522 7.51586C113.522 6.36033 112.577 5.42358 111.412 5.42358C110.247 5.42358 109.302 6.36033 109.302 7.51586C109.302 8.67139 110.247 9.60813 111.412 9.60813Z" fill="#52397D"/>
<path d="M40.6919 9.6284C41.8571 9.6284 42.8017 8.69165 42.8017 7.53612C42.8017 6.38059 41.8571 5.44385 40.6919 5.44385C39.5266 5.44385 38.582 6.38059 38.582 7.53612C38.582 8.69165 39.5266 9.6284 40.6919 9.6284Z" fill="#52397D"/>
<path d="M58.869 6.65078C58.727 6.32889 58.4836 6.04724 58.2401 5.86618C57.9967 5.68512 57.7127 5.54429 57.3881 5.48394C57.0635 5.42358 56.9418 5.42358 56.5563 5.42358H55.5014L54.6291 12.4649C54.4059 12.2235 54.1219 11.9821 53.7973 11.7608C53.5133 11.5797 53.1684 11.4188 52.7626 11.2377C52.3569 11.0566 51.87 10.9359 51.3426 10.8957C50.5108 10.8353 49.6384 10.9359 48.7255 11.1975C47.8329 11.459 46.9808 11.9217 46.2099 12.5454C45.439 13.1891 44.7696 14.014 44.2015 15.04C43.6335 16.066 43.248 17.2731 43.0857 18.7015C42.9437 19.7677 43.0249 20.7736 43.2886 21.7192C43.5523 22.6647 43.9581 23.4694 44.5261 24.1937C45.1144 24.8978 45.7636 25.5416 46.5751 25.944C46.5751 25.944 46.8186 26.125 47.2852 26.286C48.0155 26.4872 48.7864 26.5676 49.5979 26.5475C50.5716 26.5073 51.3628 26.3061 51.9715 25.9842C52.5801 25.6422 53.0264 25.3404 53.3307 25.0387C53.3307 25.0588 53.351 25.0789 53.351 25.099C53.493 25.4209 53.7364 25.7025 53.9799 25.8836C54.2233 26.0647 54.5073 26.1854 54.8319 26.2457C55.1565 26.3061 55.2782 26.286 55.6637 26.286H56.7186L57.6112 19.0837C57.6315 18.963 57.6518 18.8423 57.6721 18.7216L58.9908 7.99869C59.1125 7.3348 59.011 6.99279 58.869 6.65078ZM53.7567 18.3796C53.7161 19.4056 53.5538 20.2707 53.2901 20.9547C53.0264 21.6387 52.7018 22.1618 52.3366 22.5641C51.9714 22.9665 51.6063 23.2481 51.2005 23.4091C50.8151 23.57 50.4702 23.6706 50.1862 23.6907C49.9022 23.7109 49.5573 23.6706 49.1718 23.57C48.7864 23.4694 48.4212 23.2683 48.0966 22.9263C47.772 22.5843 47.488 22.1014 47.2649 21.4778C47.0417 20.834 46.9403 20.0091 46.9808 18.9831C47.0214 17.9571 47.1837 17.092 47.4475 16.408C47.7112 15.724 48.0358 15.2009 48.4009 14.8187C48.7661 14.4365 49.1313 14.1548 49.537 13.9939C49.9225 13.8329 50.2673 13.7323 50.5514 13.7122C50.8354 13.6921 51.1803 13.7323 51.5657 13.8329C51.9512 13.9335 52.3163 14.1347 52.6409 14.4566C52.9655 14.7785 53.2495 15.2613 53.4727 15.885C53.6958 16.5086 53.7973 17.3335 53.7567 18.3796Z" fill="#52397D"/>
<path d="M41.1178 11.3585C40.8743 11.1774 40.5903 11.0567 40.2657 10.9963C39.9411 10.936 39.8194 10.9561 39.434 10.9561H38.379L36.7967 23.731C36.7358 24.2541 36.7358 24.4352 36.8372 24.7772C36.9184 25.1192 37.1415 25.4612 37.3444 25.6624C37.5473 25.8837 37.9124 26.105 38.2168 26.1854C38.5413 26.2659 38.7848 26.286 39.1702 26.286H40.3063L41.8887 13.4709C41.9901 12.8271 41.909 12.4851 41.7467 12.1431C41.5844 11.8212 41.3612 11.5395 41.1178 11.3585Z" fill="#52397D"/>
<path d="M76.9851 5.62487C76.9648 5.58464 76.9242 5.44381 76.9242 5.44381H64.7723C64.1434 5.44381 63.2508 5.44381 63.1494 5.44381H63.1291C62.5408 5.42369 62.2364 5.56452 61.9524 5.74558C61.6684 5.90653 61.4047 6.16806 61.2627 6.40948C61.1207 6.65089 61.0192 6.91243 60.9584 7.19408C60.8975 7.47573 60.7555 8.60234 60.7555 8.74317H72.3191C71.0816 9.95025 69.6615 11.3384 68.4848 12.4449C67.8762 13.0283 67.2473 13.6318 66.6184 14.2555C65.9693 14.8792 65.3606 15.4827 64.7318 16.0862C64.1231 16.6898 63.5348 17.2531 62.9668 17.8164C62.3987 18.3596 61.8916 18.8424 61.4453 19.285C60.7555 19.9489 60.086 20.7939 59.6397 21.6388C59.1123 22.6648 58.8282 23.8317 58.7674 24.9784C58.7471 25.421 58.7674 25.8636 58.8282 26.266C58.8282 26.266 72.7654 26.266 72.806 26.266C73.3131 26.266 73.5972 26.1453 73.8609 25.9843C74.1449 25.8234 74.4086 25.5618 74.5507 25.3204C74.6927 25.079 74.7941 24.8175 74.855 24.5358C74.9158 24.2542 74.9361 24.1335 74.9564 23.7512C74.9767 23.5098 75.0578 23.0471 75.0781 22.866H62.7233C63.9406 21.6992 65.2389 20.5122 66.3953 19.3856C67.0039 18.8022 67.6328 18.1986 68.2617 17.575C68.8906 16.9513 69.5398 16.3478 70.1484 15.7442C70.7773 15.1407 71.3047 14.6377 71.8728 14.0744C72.4408 13.5111 72.948 13.0283 73.3943 12.5857C74.3072 11.7005 75.0984 10.8556 75.6056 10.1715C76.1128 9.48753 76.4171 8.94435 76.6605 8.38104C76.8837 7.83786 77.0257 7.33491 77.046 6.89231C77.0662 6.44971 77.0865 6.00712 76.9851 5.62487Z" fill="#52397D"/>
<path d="M111.818 11.3585C111.575 11.1774 111.291 11.0567 110.966 10.9963C110.642 10.936 110.52 10.9561 110.134 10.9561H109.079L107.497 23.731C107.436 24.2541 107.436 24.4352 107.538 24.7772C107.619 25.1192 107.842 25.4612 108.045 25.6624C108.248 25.8837 108.613 26.105 108.917 26.1854C109.242 26.2659 109.485 26.286 109.871 26.286H111.007L112.589 13.4709C112.691 12.8271 112.609 12.4851 112.447 12.1431C112.305 11.8212 112.082 11.5395 111.818 11.3585Z" fill="#52397D"/>
<path d="M106.036 15.0603C105.712 14.0343 105.245 13.2094 104.636 12.5656C104.028 11.9219 103.297 11.4793 102.445 11.1976C101.593 10.9361 100.741 10.8355 99.8892 10.8959C99.4226 10.9361 98.9763 11.0367 98.5706 11.1775C98.1445 11.3384 97.7794 11.4994 97.4548 11.6603C97.1302 11.8414 96.8462 12.0023 96.5824 12.2035C96.339 12.3846 96.1767 12.5053 96.0753 12.5858C96.0753 12.5455 96.055 12.5053 96.055 12.4852C96.055 12.4047 96.0347 12.3242 95.9941 12.284C95.9738 12.2236 95.9535 12.1633 95.913 12.1029C95.771 11.781 95.5275 11.4994 95.2841 11.3183C95.0406 11.1373 94.7566 10.9964 94.432 10.9361C94.148 10.8757 93.7017 10.8757 93.6814 10.8757H92.5453L90.9629 23.711C90.8615 24.3347 90.9629 24.6968 91.1049 25.0187C91.2469 25.3406 91.4904 25.6222 91.7338 25.8033C91.9773 25.9844 92.2613 26.1252 92.5859 26.1855C92.8902 26.2459 93.0119 26.2459 93.3365 26.2459C93.3365 26.2459 93.3365 26.2459 93.3568 26.2459H94.4929L95.4464 18.5206C95.5681 17.5952 95.7709 16.8105 96.055 16.1869C96.3593 15.5632 96.6839 15.0603 97.0896 14.6982C97.4751 14.336 97.9214 14.0745 98.388 13.9136C98.8546 13.7727 99.3212 13.6923 99.7878 13.7124C100.234 13.7325 100.66 13.8331 101.025 13.994C101.39 14.155 101.715 14.4366 101.958 14.8189C102.202 15.2011 102.364 15.7242 102.445 16.3881C102.527 17.052 102.506 17.8768 102.385 18.8626L101.796 23.6708C101.695 24.3146 101.776 24.6767 101.938 24.9986C102.08 25.3205 102.324 25.6021 102.567 25.7832C102.811 25.9643 103.095 26.1051 103.419 26.1654C103.723 26.2258 103.845 26.2258 104.17 26.2258H104.19H105.326L106.259 18.6815C106.422 17.3135 106.361 16.0863 106.036 15.0603Z" fill="#52397D"/>
<path d="M89.7053 13.4509C89.3605 12.6059 88.8736 11.9822 88.265 11.6C87.6969 11.258 86.9666 10.9361 86.2768 10.8556C85.5465 10.6947 84.4104 10.574 83.1324 10.574C81.3268 10.574 79.8053 10.7953 79.2981 11.0769C79.2372 11.1172 79.1764 11.1373 79.1155 11.1775C78.8315 11.3385 78.5678 11.6 78.4258 11.8414C78.2838 12.0828 78.1823 12.3444 78.1215 12.6461C78.0606 12.9278 78.0403 13.0485 78.02 13.4307C77.9997 13.7124 77.9795 13.9136 77.9795 13.9136L78.0606 13.8934C78.8315 13.7124 80.069 13.6118 81.4485 13.6118C82.9295 13.6118 84.2278 13.7325 84.9785 13.9337C85.4856 14.0142 85.932 14.2958 86.1551 14.6982C86.1551 14.6982 86.5 15.2212 86.5203 15.9857C86.5203 16.368 86.4391 16.7703 86.3174 17.2129C83.3352 16.7301 80.9211 16.8307 79.1155 17.4946C77.31 18.1585 76.2551 19.4259 75.971 21.3371C75.829 22.2424 75.8899 23.027 76.1536 23.6909C76.4174 24.3548 76.8028 24.898 77.3303 25.3205C77.8577 25.7631 78.5069 26.0649 79.2372 26.266C79.9676 26.4672 80.7588 26.5477 81.55 26.5276C82.544 26.4873 83.3352 26.2861 83.9438 25.9643C84.5524 25.6223 84.9988 25.3205 85.3031 24.9986C85.3233 24.9785 85.3436 24.9785 85.3436 24.9584C85.3436 24.9785 85.3842 25.0187 85.3842 25.0388C85.5262 25.3607 85.7697 25.6424 86.0131 25.8234C86.2565 26.0045 86.5406 26.1453 86.8652 26.2057C87.1898 26.266 87.3115 26.266 87.6969 26.266H88.7519L89.8879 17.1325C90.1517 15.523 90.0705 14.3159 89.7053 13.4509ZM85.5465 21.6188C85.3031 22.1418 84.9785 22.5643 84.6133 22.8661C84.2279 23.1679 83.8221 23.3892 83.3758 23.4897C82.9295 23.6105 82.4629 23.6708 82.0166 23.6708C81.6514 23.6708 81.2862 23.6306 80.9616 23.5702C80.6371 23.5099 80.353 23.3892 80.1299 23.2282C79.9067 23.0673 79.7241 22.846 79.6227 22.5643C79.5213 22.2827 79.4807 21.9205 79.5416 21.4981C79.6024 21.0756 79.7241 20.7135 79.927 20.4318C80.1299 20.1502 80.3936 19.9289 80.6776 19.7277C80.9819 19.5466 81.2862 19.4058 81.6108 19.3454C81.9354 19.265 82.26 19.2247 82.5643 19.2046C83.0715 19.1845 83.5381 19.1845 83.9641 19.2448C84.3901 19.2851 84.7553 19.3253 85.0596 19.3656C85.4248 19.4259 85.7494 19.5064 86.0537 19.5868C85.9725 20.4117 85.79 21.0957 85.5465 21.6188Z" fill="#52397D"/>
<path d="M127.175 13.4509C126.83 12.6059 126.343 11.9822 125.735 11.6C125.167 11.258 124.436 10.9361 123.747 10.8556C123.016 10.6947 121.88 10.574 120.602 10.574C118.797 10.574 117.275 10.7953 116.768 11.0769C116.707 11.1172 116.646 11.1373 116.585 11.1775C116.301 11.3385 116.038 11.6 115.895 11.8414C115.753 12.0828 115.652 12.3444 115.591 12.6461C115.53 12.9278 115.51 13.0485 115.49 13.4307C115.469 13.7124 115.449 13.9136 115.449 13.9136L115.53 13.8934C116.301 13.7124 117.539 13.6118 118.918 13.6118C120.399 13.6118 121.698 13.7325 122.448 13.9337C122.955 14.0142 123.402 14.2958 123.625 14.6982C123.625 14.6982 123.97 15.2212 123.99 15.9857C123.99 16.368 123.909 16.7703 123.787 17.2129C120.805 16.7301 118.391 16.8307 116.585 17.4946C114.78 18.1585 113.725 19.4259 113.441 21.3371C113.299 22.2424 113.36 23.027 113.623 23.6909C113.887 24.3548 114.273 24.898 114.8 25.3205C115.327 25.7631 115.977 26.0649 116.707 26.266C117.437 26.4672 118.228 26.5477 119.02 26.5276C120.014 26.4873 120.805 26.2861 121.414 25.9643C122.022 25.6223 122.468 25.3205 122.773 24.9986C122.793 24.9785 122.813 24.9785 122.813 24.9584C122.813 24.9785 122.854 25.0187 122.854 25.0388C122.996 25.3607 123.239 25.6424 123.483 25.8234C123.726 26.0045 124.01 26.1453 124.335 26.2057C124.659 26.266 124.781 26.266 125.167 26.266H126.222L127.358 17.1325C127.601 15.523 127.54 14.3159 127.175 13.4509ZM123.016 21.6188C122.773 22.1418 122.448 22.5643 122.083 22.8661C121.698 23.1679 121.292 23.3892 120.846 23.4897C120.399 23.6105 119.933 23.6708 119.486 23.6708C119.121 23.6708 118.756 23.6306 118.431 23.5702C118.107 23.5099 117.823 23.3892 117.6 23.2282C117.376 23.0673 117.194 22.846 117.092 22.5643C116.991 22.2827 116.95 21.9205 117.011 21.4981C117.072 21.0756 117.194 20.7135 117.397 20.4318C117.6 20.1502 117.863 19.9289 118.147 19.7277C118.452 19.5466 118.756 19.4058 119.081 19.3454C119.405 19.265 119.73 19.2247 120.034 19.2046C120.541 19.1845 121.008 19.1845 121.434 19.2448C121.86 19.2851 122.225 19.3253 122.529 19.3656C122.895 19.4259 123.219 19.5064 123.523 19.5868C123.442 20.4117 123.26 21.0957 123.016 21.6188Z" fill="#52397D"/>
<path d="M11.3161 26.3463L13.9128 5.44371H15.0692C15.1706 5.44371 15.2517 5.44371 15.3329 5.44371C15.3938 5.44371 15.4546 5.44371 15.4952 5.44371C15.6981 5.44371 15.8401 5.44371 16.0835 5.50406C16.469 5.58454 16.7936 5.72536 17.0776 5.92654C17.3819 6.14784 17.6253 6.46973 17.8079 6.83185C17.9905 7.2141 18.0513 7.89811 17.9296 8.66259L17.2804 13.8933L25.3952 5.84607C25.2938 5.82595 25.2329 5.80583 25.2329 5.80583C24.1172 5.58454 23.2448 5.28277 22.6768 5.06147C21.7233 4.67923 21.0538 4.3171 20.4858 3.97509C20.0395 3.69344 19.6134 3.43191 19.0454 3.15026C18.518 2.88872 17.8688 2.60707 17.0979 2.36565C15.8604 1.96329 14.3794 1.68164 12.8376 1.68164C11.4378 1.68164 10.2814 1.82247 9.16564 2.10412C8.15129 2.36565 7.33981 2.66742 6.40661 3.11002C6.40661 3.11002 5.47341 3.55262 4.37791 4.3171L1.63917 26.4268C1.49716 27.2114 2.14634 27.6339 2.73466 27.5132C2.81581 27.4931 3.01868 27.3925 3.22155 27.312C3.78959 27.0706 4.31705 26.8694 4.82423 26.7286C6.83264 26.125 8.96277 25.9842 11.0726 26.286C11.1132 26.3262 11.2146 26.3262 11.3161 26.3463Z" fill="#52397D"/>
<path d="M36.5329 3.49234C36.2286 3.47222 36.046 3.57281 35.904 3.6734C35.4983 3.93493 35.1331 4.17635 34.768 4.35741C34.1594 4.6793 33.6928 4.88048 33.6928 4.88048C33.4087 5.00119 33.1856 5.10178 32.9421 5.18225C32.5973 5.30296 32.2727 5.42367 31.9886 5.50414L21.4597 15.9454C21.5408 16.0057 21.622 16.046 21.6626 16.1063L30.812 25.1997C30.3454 25.7429 29.8585 26.0446 29.8382 26.0446C29.2905 26.3665 28.6819 26.5275 28.053 26.5275C25.6185 26.5275 23.387 24.0932 23.387 24.0932L18.1123 18.8625L16.814 17.575L15.5359 27.7748C15.6982 27.8553 15.7996 27.9156 15.7996 27.9156C15.8605 27.9357 16.3879 28.2375 16.3879 28.2375C16.53 28.318 17.1588 28.6197 17.1386 28.5996C17.3617 28.7002 17.5849 28.8008 17.808 28.8813C18.2543 29.0623 18.6804 29.1831 19.0861 29.3239C19.5933 29.4647 20.1005 29.5854 20.7091 29.7061C20.7091 29.7061 20.9119 29.7464 21.2568 29.7866C21.7234 29.8469 22.2509 29.8872 22.9204 29.9073C23.2247 29.9073 23.5493 29.9073 23.9347 29.8872C24.239 29.8671 24.5636 29.8469 24.9085 29.8067C25.1722 29.7665 25.4765 29.7262 25.7403 29.6659C25.9431 29.6256 26.146 29.5854 26.3286 29.5452C26.9575 29.4043 27.5864 29.2032 28.2558 28.9416C28.5601 28.8209 28.9456 28.66 29.189 28.5393C29.4933 28.3984 29.8382 28.2174 30.1425 28.0363C30.2845 27.9559 30.7917 27.6541 31.38 27.2316C31.8669 26.8695 32.3741 26.4671 32.7798 26.0648C33.0841 25.7831 33.5507 25.3204 34.1594 24.576C34.2405 24.4754 34.7477 23.8115 34.8897 23.5701L37.2633 4.43788C37.2836 4.27694 37.2227 4.0154 37.0401 3.79411C36.9792 3.6734 36.7561 3.51245 36.5329 3.49234Z" fill="#52397D"/>
</g>
<defs>
<clipPath id="clip0_251_149">
<rect width="126.794" height="30.177" fill="white" transform="translate(0.726318 0.554932)"/>
</clipPath>
</defs>
</svg>
