<svg width="33" height="33" viewBox="0 0 33 33" fill="none" xmlns="http://www.w3.org/2000/svg">
<path d="M29.6997 29.7V20.031C29.6997 15.279 28.6767 11.649 23.1327 11.649C20.4597 11.649 18.6777 13.101 17.9517 14.487H17.8857V12.078H12.6387V29.7H18.1167V20.955C18.1167 18.645 18.5457 16.434 21.3837 16.434C24.1887 16.434 24.2217 19.041 24.2217 21.087V29.667H29.6997V29.7Z" fill="#553B81"/>
<path d="M3.729 12.078H9.207V29.7H3.729V12.078Z" fill="#553B81"/>
<path d="M6.4678 3.29999C4.7188 3.29999 3.2998 4.71899 3.2998 6.46799C3.2998 8.21699 4.7188 9.66899 6.4678 9.66899C8.21681 9.66899 9.63581 8.21699 9.63581 6.46799C9.63581 4.71899 8.21681 3.29999 6.4678 3.29999V3.29999Z" fill="#553B81"/>
</svg>
