<svg width="186" height="177" viewBox="0 0 186 177" fill="none" xmlns="http://www.w3.org/2000/svg">
<path d="M21.056 120.568C23.4827 120.568 25.4427 120.941 26.936 121.688C28.4293 122.397 29.8293 123.237 31.136 124.208C31.6213 124.581 31.9947 124.768 32.256 124.768C32.9653 124.768 33.432 123.629 33.656 121.352H34.944C34.8693 122.733 34.8133 124.413 34.776 126.392C34.7387 128.371 34.72 130.984 34.72 134.232H33.432C33.1707 132.664 32.8533 131.152 32.48 129.696C32.1067 128.24 31.4907 126.989 30.632 125.944C29.5493 124.563 28.1307 123.499 26.376 122.752C24.6213 121.968 22.8107 121.576 20.944 121.576C19.0773 121.576 17.3787 122.043 15.848 122.976C14.3547 123.872 13.0667 125.179 11.984 126.896C10.9013 128.613 10.0613 130.685 9.464 133.112C8.904 135.501 8.624 138.208 8.624 141.232C8.624 147.952 9.70667 152.88 11.872 156.016C14.0373 159.115 17.3973 160.664 21.952 160.664C23.296 160.664 24.4533 160.477 25.424 160.104C26.432 159.693 27.216 159.301 27.776 158.928C28.4853 158.443 28.9333 157.995 29.12 157.584C29.3067 157.136 29.4 156.557 29.4 155.848V150.472C29.4 148.941 29.2507 147.803 28.952 147.056C28.6533 146.309 28.0933 145.805 27.272 145.544C26.488 145.283 25.312 145.133 23.744 145.096V143.976C24.416 144.013 25.2 144.051 26.096 144.088C26.992 144.088 27.9253 144.107 28.896 144.144C29.904 144.144 30.8187 144.144 31.64 144.144C32.872 144.144 33.9733 144.125 34.944 144.088C35.952 144.051 36.792 144.013 37.464 143.976V145.096C36.6427 145.133 36.0267 145.264 35.616 145.488C35.2053 145.712 34.9253 146.16 34.776 146.832C34.664 147.504 34.608 148.531 34.608 149.912V161H33.488C33.4507 160.365 33.3013 159.675 33.04 158.928C32.816 158.181 32.4613 157.808 31.976 157.808C31.752 157.808 31.528 157.864 31.304 157.976C31.08 158.088 30.688 158.349 30.128 158.76C28.896 159.693 27.5893 160.44 26.208 161C24.8267 161.523 23.2213 161.784 21.392 161.784C17.5467 161.784 14.2427 161 11.48 159.432C8.75467 157.827 6.664 155.531 5.208 152.544C3.752 149.557 3.024 145.992 3.024 141.848C3.024 137.48 3.808 133.709 5.376 130.536C6.944 127.363 9.072 124.917 11.76 123.2C14.4853 121.445 17.584 120.568 21.056 120.568ZM58.415 131.376C59.423 131.376 60.3003 131.581 61.047 131.992C61.831 132.403 62.4283 132.944 62.839 133.616C63.287 134.251 63.511 134.979 63.511 135.8C63.511 136.733 63.2123 137.555 62.615 138.264C62.055 138.973 61.2897 139.328 60.319 139.328C59.535 139.328 58.8443 139.085 58.247 138.6C57.6497 138.077 57.351 137.349 57.351 136.416C57.351 135.707 57.5377 135.109 57.911 134.624C58.3217 134.101 58.7697 133.691 59.255 133.392C58.9937 133.019 58.6017 132.832 58.079 132.832C56.9217 132.832 55.8577 133.187 54.887 133.896C53.9163 134.568 53.095 135.445 52.423 136.528C51.751 137.611 51.2283 138.768 50.855 140C50.4817 141.195 50.295 142.315 50.295 143.36V155.232C50.295 157.061 50.8177 158.293 51.863 158.928C52.9457 159.525 54.4017 159.824 56.231 159.824V161C55.3723 160.963 54.159 160.925 52.591 160.888C51.023 160.813 49.3617 160.776 47.607 160.776C46.3377 160.776 45.0683 160.813 43.799 160.888C42.567 160.925 41.6337 160.963 40.999 161V159.824C42.5297 159.824 43.6123 159.544 44.247 158.984C44.919 158.424 45.255 157.36 45.255 155.792V138.264C45.255 136.584 44.9563 135.352 44.359 134.568C43.7617 133.747 42.6417 133.336 40.999 133.336V132.16C42.1937 132.272 43.351 132.328 44.471 132.328C45.5537 132.328 46.5803 132.272 47.551 132.16C48.559 132.011 49.4737 131.805 50.295 131.544V138.544C50.7057 137.461 51.2843 136.379 52.031 135.296C52.815 134.176 53.7483 133.243 54.831 132.496C55.9137 131.749 57.1083 131.376 58.415 131.376ZM78.5628 131.376C80.9521 131.376 83.0988 131.899 85.0028 132.944C86.9068 133.989 88.4188 135.632 89.5388 137.872C90.6961 140.112 91.2748 143.024 91.2748 146.608C91.2748 150.192 90.6961 153.104 89.5388 155.344C88.4188 157.547 86.9068 159.171 85.0028 160.216C83.0988 161.261 80.9521 161.784 78.5628 161.784C76.2108 161.784 74.0641 161.261 72.1228 160.216C70.2188 159.171 68.6881 157.547 67.5308 155.344C66.4108 153.104 65.8508 150.192 65.8508 146.608C65.8508 143.024 66.4108 140.112 67.5308 137.872C68.6881 135.632 70.2188 133.989 72.1228 132.944C74.0641 131.899 76.2108 131.376 78.5628 131.376ZM78.5628 132.496C76.4348 132.496 74.6801 133.597 73.2988 135.8C71.9548 138.003 71.2828 141.605 71.2828 146.608C71.2828 151.611 71.9548 155.213 73.2988 157.416C74.6801 159.581 76.4348 160.664 78.5628 160.664C80.6908 160.664 82.4268 159.581 83.7708 157.416C85.1521 155.213 85.8428 151.611 85.8428 146.608C85.8428 141.605 85.1521 138.003 83.7708 135.8C82.4268 133.597 80.6908 132.496 78.5628 132.496ZM120.946 131.544V154.952C120.946 156.632 121.245 157.883 121.842 158.704C122.477 159.488 123.597 159.88 125.202 159.88V161.056C124.045 160.944 122.888 160.888 121.73 160.888C120.648 160.888 119.602 160.944 118.594 161.056C117.624 161.168 116.728 161.373 115.906 161.672V155.064C114.973 157.491 113.648 159.227 111.93 160.272C110.25 161.28 108.514 161.784 106.722 161.784C105.416 161.784 104.277 161.597 103.306 161.224C102.336 160.851 101.533 160.328 100.898 159.656C100.189 158.909 99.7038 157.939 99.4424 156.744C99.1811 155.549 99.0504 154.075 99.0504 152.32V138.264C99.0504 136.584 98.7518 135.352 98.1544 134.568C97.5571 133.747 96.4371 133.336 94.7944 133.336V132.16C95.9891 132.272 97.1464 132.328 98.2664 132.328C99.3491 132.328 100.376 132.272 101.346 132.16C102.354 132.011 103.269 131.805 104.09 131.544V153.552C104.09 154.709 104.165 155.773 104.314 156.744C104.464 157.715 104.837 158.499 105.434 159.096C106.032 159.693 107.002 159.992 108.346 159.992C109.802 159.992 111.09 159.544 112.21 158.648C113.368 157.752 114.264 156.539 114.898 155.008C115.57 153.477 115.906 151.76 115.906 149.856V138.264C115.906 136.584 115.608 135.352 115.01 134.568C114.413 133.747 113.293 133.336 111.65 133.336V132.16C112.845 132.272 114.002 132.328 115.122 132.328C116.205 132.328 117.232 132.272 118.202 132.16C119.21 132.011 120.125 131.805 120.946 131.544ZM136.966 131.544V165.928C136.966 167.533 137.432 168.597 138.366 169.12C139.336 169.68 140.662 169.96 142.342 169.96V171.136C141.52 171.099 140.382 171.043 138.926 170.968C137.47 170.931 135.92 170.912 134.278 170.912C133.12 170.912 131.963 170.931 130.806 170.968C129.686 171.043 128.827 171.099 128.23 171.136V169.96C129.574 169.96 130.526 169.717 131.086 169.232C131.646 168.747 131.926 167.832 131.926 166.488V138.264C131.926 136.584 131.627 135.352 131.03 134.568C130.432 133.747 129.312 133.336 127.67 133.336V132.16C128.864 132.272 130.022 132.328 131.142 132.328C132.224 132.328 133.251 132.272 134.222 132.16C135.23 132.011 136.144 131.805 136.966 131.544ZM145.926 131.376C147.904 131.376 149.678 131.917 151.246 133C152.814 134.045 154.046 135.595 154.942 137.648C155.875 139.701 156.342 142.24 156.342 145.264C156.342 147.28 156.099 149.277 155.614 151.256C155.128 153.197 154.363 154.971 153.318 156.576C152.31 158.144 150.984 159.413 149.342 160.384C147.736 161.317 145.795 161.784 143.518 161.784C141.763 161.784 140.232 161.373 138.926 160.552C137.656 159.731 136.798 158.741 136.35 157.584L136.91 156.8C137.432 157.845 138.179 158.723 139.15 159.432C140.158 160.141 141.408 160.496 142.901 160.496C144.992 160.496 146.616 159.843 147.774 158.536C148.931 157.229 149.734 155.493 150.182 153.328C150.667 151.125 150.91 148.699 150.91 146.048C150.91 143.061 150.667 140.616 150.182 138.712C149.696 136.808 148.968 135.389 147.998 134.456C147.027 133.523 145.832 133.056 144.414 133.056C142.584 133.056 140.923 133.821 139.43 135.352C137.936 136.845 136.984 139.123 136.574 142.184L135.902 141.4C136.312 138.227 137.432 135.763 139.262 134.008C141.128 132.253 143.35 131.376 145.926 131.376Z" fill="#52397D"/>
<path d="M65.578 82.092C66.946 82.092 68.08 82.254 68.98 82.578C69.88 82.866 70.618 83.244 71.194 83.712C71.662 84.072 72.04 84.468 72.328 84.9C72.616 85.332 72.832 85.764 72.976 86.196C73.12 86.628 73.192 87.042 73.192 87.438C73.192 88.338 72.868 89.04 72.22 89.544C71.608 90.048 70.924 90.3 70.168 90.3C69.448 90.3 68.8 90.066 68.224 89.598C67.648 89.13 67.36 88.464 67.36 87.6C67.36 86.808 67.63 86.142 68.17 85.602C68.71 85.026 69.394 84.702 70.222 84.63C70.078 84.162 69.628 83.766 68.872 83.442C68.152 83.082 67.234 82.902 66.118 82.902C64.282 82.902 62.77 83.46 61.582 84.576C60.43 85.656 59.854 87.24 59.854 89.328C59.854 90.336 60.034 91.362 60.394 92.406C60.79 93.45 61.528 94.476 62.608 95.484C63.22 95.376 63.85 95.304 64.498 95.268C65.146 95.196 65.632 95.16 65.956 95.16C66.604 95.16 67.126 95.268 67.522 95.484C67.918 95.7 68.116 96.006 68.116 96.402C68.116 96.726 67.972 96.978 67.684 97.158C67.432 97.338 67.072 97.428 66.604 97.428C65.92 97.428 65.2 97.284 64.444 96.996C63.688 96.672 63.094 96.42 62.662 96.24C60.574 96.852 58.882 97.86 57.586 99.264C56.29 100.632 55.642 102.576 55.642 105.096C55.642 107.58 56.29 109.686 57.586 111.414C58.882 113.142 60.61 114.474 62.77 115.41C64.966 116.31 67.414 116.76 70.114 116.76C72.022 116.76 73.822 116.544 75.514 116.112C77.242 115.644 78.754 114.978 80.05 114.114C81.382 113.25 82.426 112.224 83.182 111.036C83.938 109.812 84.316 108.426 84.316 106.878C84.316 106.194 84.172 105.33 83.884 104.286C83.596 103.206 83.002 102.162 82.102 101.154C81.202 100.11 79.816 99.3 77.944 98.724L78.592 98.184C81.22 98.976 83.092 100.254 84.208 102.018C85.324 103.746 85.882 105.69 85.882 107.85C85.882 110.01 85.234 112.08 83.938 114.06C82.642 116.04 80.77 117.66 78.322 118.92C75.874 120.144 72.904 120.756 69.412 120.756C67.072 120.756 64.84 120.45 62.716 119.838C60.628 119.226 58.774 118.344 57.154 117.192C55.534 116.004 54.256 114.582 53.32 112.926C52.384 111.27 51.916 109.398 51.916 107.31C51.916 105.366 52.294 103.71 53.05 102.342C53.806 100.938 54.742 99.786 55.858 98.886C56.974 97.986 58.09 97.302 59.206 96.834C60.322 96.33 61.222 95.988 61.906 95.808C60.718 95.268 59.71 94.638 58.882 93.918C58.09 93.162 57.478 92.352 57.046 91.488C56.65 90.588 56.452 89.706 56.452 88.842C56.452 87.978 56.65 87.15 57.046 86.358C57.442 85.53 58.018 84.792 58.774 84.144C59.53 83.496 60.466 82.992 61.582 82.632C62.734 82.272 64.066 82.092 65.578 82.092ZM85.234 81.012C87.466 81.012 89.338 81.66 90.85 82.956C92.362 84.216 93.118 85.998 93.118 88.302C93.118 89.526 92.884 90.624 92.416 91.596C91.984 92.532 91.372 93.36 90.58 94.08C89.824 94.8 88.96 95.394 87.988 95.862C87.16 96.258 86.062 96.69 84.694 97.158C83.362 97.626 81.922 98.094 80.374 98.562C78.862 99.03 77.404 99.498 76 99.966C74.632 100.398 73.516 100.776 72.652 101.1C71.32 101.604 70.186 102.234 69.25 102.99C68.35 103.71 67.9 104.646 67.9 105.798C67.9 106.734 68.17 107.526 68.71 108.174C69.25 108.822 69.898 109.308 70.654 109.632C71.446 109.956 72.184 110.118 72.868 110.118C73.192 110.118 73.588 110.082 74.056 110.01C74.56 109.902 75.01 109.758 75.406 109.578C75.802 109.398 76.036 109.182 76.108 108.93C75.532 108.822 74.956 108.57 74.38 108.174C73.84 107.742 73.57 107.076 73.57 106.176C73.57 105.312 73.858 104.628 74.434 104.124C75.01 103.62 75.712 103.368 76.54 103.368C77.404 103.368 78.088 103.638 78.592 104.178C79.132 104.718 79.402 105.42 79.402 106.284C79.402 107.292 79.06 108.156 78.376 108.876C77.728 109.56 76.9 110.082 75.892 110.442C74.92 110.766 73.948 110.928 72.976 110.928C71.968 110.928 70.942 110.712 69.898 110.28C68.854 109.848 67.99 109.182 67.306 108.282C66.622 107.346 66.28 106.122 66.28 104.61C66.28 103.35 66.55 102.234 67.09 101.262C67.666 100.29 68.512 99.426 69.628 98.67C70.744 97.914 72.112 97.266 73.732 96.726C74.812 96.366 76.126 95.97 77.674 95.538C79.222 95.106 80.806 94.638 82.426 94.134C84.082 93.63 85.576 93.072 86.908 92.46C88.708 91.632 89.932 90.786 90.58 89.922C91.228 89.058 91.552 88.176 91.552 87.276C91.552 86.232 91.264 85.314 90.688 84.522C90.112 83.694 89.338 83.046 88.366 82.578C87.43 82.074 86.404 81.822 85.288 81.822C84.856 81.822 84.496 81.858 84.208 81.93C83.92 82.002 83.74 82.128 83.668 82.308C84.172 82.56 84.55 82.92 84.802 83.388C85.054 83.856 85.18 84.324 85.18 84.792C85.18 85.548 84.874 86.178 84.262 86.682C83.686 87.186 82.984 87.438 82.156 87.438C81.472 87.438 80.824 87.222 80.212 86.79C79.6 86.322 79.294 85.638 79.294 84.738C79.294 83.802 79.6 83.064 80.212 82.524C80.86 81.984 81.634 81.606 82.534 81.39C83.47 81.138 84.37 81.012 85.234 81.012Z" fill="#52397D"/>
<path d="M163.08 56.36V57.96C161.267 58.0133 159.907 58.2267 159 58.6C158.093 58.92 157.48 59.56 157.16 60.52C156.893 61.4267 156.76 62.8667 156.76 64.84V104.52C156.76 106.44 156.893 107.88 157.16 108.84C157.48 109.8 158.093 110.44 159 110.76C159.907 111.08 161.267 111.293 163.08 111.4V113C161.747 112.893 160.093 112.84 158.12 112.84C156.147 112.787 154.147 112.76 152.12 112.76C149.88 112.76 147.773 112.787 145.8 112.84C143.827 112.84 142.253 112.893 141.08 113V111.4C142.893 111.293 144.253 111.08 145.16 110.76C146.12 110.44 146.76 109.8 147.08 108.84C147.4 107.88 147.56 106.44 147.56 104.52V60.76L147.96 60.92L128.28 113.32H127L106.36 61.48V102.44C106.36 104.68 106.52 106.44 106.84 107.72C107.16 108.947 107.853 109.827 108.92 110.36C109.987 110.893 111.613 111.24 113.8 111.4V113C112.787 112.893 111.48 112.84 109.88 112.84C108.333 112.787 106.867 112.76 105.48 112.76C104.147 112.76 102.813 112.787 101.48 112.84C100.147 112.84 99.0533 112.893 98.2 113V111.4C99.96 111.24 101.293 110.92 102.2 110.44C103.107 109.907 103.72 109.027 104.04 107.8C104.36 106.573 104.52 104.893 104.52 102.76V64.84C104.52 62.8667 104.36 61.4267 104.04 60.52C103.72 59.56 103.107 58.92 102.2 58.6C101.293 58.2267 99.96 58.0133 98.2 57.96V56.36C99.0533 56.4133 100.147 56.4667 101.48 56.52C102.813 56.5733 104.147 56.6 105.48 56.6C107.027 56.6 108.573 56.5733 110.12 56.52C111.72 56.4667 113.08 56.4133 114.2 56.36L131.88 101.8L130.36 102.84L147.72 56.6C148.413 56.6 149.133 56.6 149.88 56.6C150.627 56.6 151.373 56.6 152.12 56.6C154.147 56.6 156.147 56.5733 158.12 56.52C160.093 56.4667 161.747 56.4133 163.08 56.36Z" fill="#52397D"/>
<path d="M26.2 54.4C29.0267 54.4 31.1867 54.72 32.68 55.36C34.1733 56 35.48 56.6933 36.6 57.44C37.24 57.8133 37.7467 58.1067 38.12 58.32C38.5467 58.48 38.9467 58.56 39.32 58.56C39.8533 58.56 40.2267 58.2667 40.44 57.68C40.7067 57.0933 40.92 56.2133 41.08 55.04H42.92C42.8667 56 42.7867 57.1467 42.68 58.48C42.6267 59.76 42.5733 61.4667 42.52 63.6C42.52 65.7333 42.52 68.5333 42.52 72H40.68C40.52 69.3867 39.9333 66.8533 38.92 64.4C37.96 61.9467 36.52 59.9467 34.6 58.4C32.7333 56.8533 30.3333 56.08 27.4 56.08C24.68 56.08 22.4133 56.9067 20.6 58.56C18.84 60.16 17.96 62.2933 17.96 64.96C17.96 67.3067 18.5467 69.28 19.72 70.88C20.8933 72.4267 22.4933 73.8933 24.52 75.28C26.6 76.6133 28.9467 78.1067 31.56 79.76C34.2267 81.4667 36.6267 83.1733 38.76 84.88C40.8933 86.5333 42.5733 88.3733 43.8 90.4C45.0267 92.4267 45.64 94.88 45.64 97.76C45.64 101.227 44.8133 104.107 43.16 106.4C41.56 108.64 39.4 110.32 36.68 111.44C33.96 112.56 30.9733 113.12 27.72 113.12C24.7333 113.12 22.36 112.8 20.6 112.16C18.84 111.52 17.3467 110.853 16.12 110.16C14.9467 109.413 14.04 109.04 13.4 109.04C12.8667 109.04 12.4667 109.333 12.2 109.92C11.9867 110.507 11.8 111.387 11.64 112.56H9.8C9.90667 111.387 9.96 110.027 9.96 108.48C10.0133 106.88 10.04 104.8 10.04 102.24C10.0933 99.68 10.12 96.4533 10.12 92.56H11.96C12.1733 95.8667 12.76 98.96 13.72 101.84C14.7333 104.72 16.2533 107.04 18.28 108.8C20.36 110.507 23.1067 111.36 26.52 111.36C28.3333 111.36 30.0133 111.013 31.56 110.32C33.1067 109.627 34.36 108.533 35.32 107.04C36.28 105.547 36.76 103.627 36.76 101.28C36.76 99.0933 36.2267 97.1733 35.16 95.52C34.1467 93.8667 32.7067 92.3467 30.84 90.96C29.0267 89.52 26.8933 88.0533 24.44 86.56C21.9333 84.96 19.5867 83.36 17.4 81.76C15.2133 80.16 13.4533 78.2933 12.12 76.16C10.84 74.0267 10.2 71.4933 10.2 68.56C10.2 65.3067 10.9467 62.64 12.44 60.56C13.9867 58.48 15.96 56.9333 18.36 55.92C20.8133 54.9067 23.4267 54.4 26.2 54.4Z" fill="#52397D"/>
<path d="M90.4 42L89.4 36.1725C88.7667 35.9567 88.1 35.6638 87.4 35.2938C86.7 34.9238 86.0833 34.5383 85.55 34.1375L79.65 36.635L75 29.05L80.4 25.3962C80.3333 25.1187 80.2917 24.8027 80.275 24.4481C80.2583 24.0935 80.25 23.7775 80.25 23.5C80.25 23.2225 80.2583 22.9065 80.275 22.5519C80.2917 22.1973 80.3333 21.8813 80.4 21.6038L75 17.95L79.65 10.365L85.55 12.8625C86.0833 12.4617 86.7 12.0763 87.4 11.7063C88.1 11.3363 88.7667 11.0588 89.4 10.8738L90.4 5H99.6L100.6 10.8275C101.233 11.0433 101.908 11.3285 102.625 11.6831C103.342 12.0377 103.95 12.4308 104.45 12.8625L110.35 10.365L115 17.95L109.6 21.5112C109.667 21.8196 109.708 22.151 109.725 22.5056C109.742 22.8602 109.75 23.1917 109.75 23.5C109.75 23.8083 109.742 24.1321 109.725 24.4712C109.708 24.8104 109.667 25.1342 109.6 25.4425L115 29.05L110.35 36.635L104.45 34.1375C103.917 34.5383 103.308 34.9315 102.625 35.3169C101.942 35.7023 101.267 35.9875 100.6 36.1725L99.6 42H90.4ZM95 29.5125C96.8 29.5125 98.3333 28.9267 99.6 27.755C100.867 26.5833 101.5 25.165 101.5 23.5C101.5 21.835 100.867 20.4167 99.6 19.245C98.3333 18.0733 96.8 17.4875 95 17.4875C93.2 17.4875 91.6667 18.0733 90.4 19.245C89.1333 20.4167 88.5 21.835 88.5 23.5C88.5 25.165 89.1333 26.5833 90.4 27.755C91.6667 28.9267 93.2 29.5125 95 29.5125ZM95 26.7375C94.0333 26.7375 93.2083 26.4215 92.525 25.7894C91.8417 25.1573 91.5 24.3942 91.5 23.5C91.5 22.6058 91.8417 21.8427 92.525 21.2106C93.2083 20.5785 94.0333 20.2625 95 20.2625C95.9667 20.2625 96.7917 20.5785 97.475 21.2106C98.1583 21.8427 98.5 22.6058 98.5 23.5C98.5 24.3942 98.1583 25.1573 97.475 25.7894C96.7917 26.4215 95.9667 26.7375 95 26.7375ZM92.8 39.225H97.2L97.9 34.045C99 33.7983 100.042 33.4129 101.025 32.8888C102.008 32.3646 102.9 31.7325 103.7 30.9925L109 33.12L111 29.79L106.3 26.5988C106.433 26.0746 106.542 25.5581 106.625 25.0494C106.708 24.5406 106.75 24.0242 106.75 23.5C106.75 22.9758 106.717 22.4594 106.65 21.9506C106.583 21.4419 106.467 20.9254 106.3 20.4013L111 17.21L109 13.88L103.7 16.0075C102.933 15.2058 102.067 14.5352 101.1 13.9956C100.133 13.456 99.0667 13.1092 97.9 12.955L97.2 7.775H92.8L92.1 12.955C90.9667 13.1708 89.9083 13.5408 88.925 14.065C87.9417 14.5892 87.0667 15.2367 86.3 16.0075L81 13.88L79 17.21L83.7 20.4013C83.5667 20.9254 83.4583 21.4419 83.375 21.9506C83.2917 22.4594 83.25 22.9758 83.25 23.5C83.25 24.0242 83.2917 24.5406 83.375 25.0494C83.4583 25.5581 83.5667 26.0746 83.7 26.5988L79 29.79L81 33.12L86.3 30.9925C87.1 31.7325 87.9917 32.3646 88.975 32.8888C89.9583 33.4129 91 33.7983 92.1 34.045L92.8 39.225Z" fill="#52397D"/>
<path d="M48.4 37L47.4 31.1725C46.7667 30.9567 46.1 30.6638 45.4 30.2938C44.7 29.9238 44.0833 29.5383 43.55 29.1375L37.65 31.635L33 24.05L38.4 20.3962C38.3333 20.1187 38.2917 19.8027 38.275 19.4481C38.2583 19.0935 38.25 18.7775 38.25 18.5C38.25 18.2225 38.2583 17.9065 38.275 17.5519C38.2917 17.1973 38.3333 16.8813 38.4 16.6038L33 12.95L37.65 5.365L43.55 7.8625C44.0833 7.46167 44.7 7.07625 45.4 6.70625C46.1 6.33625 46.7667 6.05875 47.4 5.87375L48.4 0H57.6L58.6 5.8275C59.2333 6.04333 59.9083 6.32854 60.625 6.68313C61.3417 7.03771 61.95 7.43083 62.45 7.8625L68.35 5.365L73 12.95L67.6 16.5112C67.6667 16.8196 67.7083 17.151 67.725 17.5056C67.7417 17.8602 67.75 18.1917 67.75 18.5C67.75 18.8083 67.7417 19.1321 67.725 19.4712C67.7083 19.8104 67.6667 20.1342 67.6 20.4425L73 24.05L68.35 31.635L62.45 29.1375C61.9167 29.5383 61.3083 29.9315 60.625 30.3169C59.9417 30.7023 59.2667 30.9875 58.6 31.1725L57.6 37H48.4ZM53 24.5125C54.8 24.5125 56.3333 23.9267 57.6 22.755C58.8667 21.5833 59.5 20.165 59.5 18.5C59.5 16.835 58.8667 15.4167 57.6 14.245C56.3333 13.0733 54.8 12.4875 53 12.4875C51.2 12.4875 49.6667 13.0733 48.4 14.245C47.1333 15.4167 46.5 16.835 46.5 18.5C46.5 20.165 47.1333 21.5833 48.4 22.755C49.6667 23.9267 51.2 24.5125 53 24.5125ZM53 21.7375C52.0333 21.7375 51.2083 21.4215 50.525 20.7894C49.8417 20.1573 49.5 19.3942 49.5 18.5C49.5 17.6058 49.8417 16.8427 50.525 16.2106C51.2083 15.5785 52.0333 15.2625 53 15.2625C53.9667 15.2625 54.7917 15.5785 55.475 16.2106C56.1583 16.8427 56.5 17.6058 56.5 18.5C56.5 19.3942 56.1583 20.1573 55.475 20.7894C54.7917 21.4215 53.9667 21.7375 53 21.7375ZM50.8 34.225H55.2L55.9 29.045C57 28.7983 58.0417 28.4129 59.025 27.8888C60.0083 27.3646 60.9 26.7325 61.7 25.9925L67 28.12L69 24.79L64.3 21.5988C64.4333 21.0746 64.5417 20.5581 64.625 20.0494C64.7083 19.5406 64.75 19.0242 64.75 18.5C64.75 17.9758 64.7167 17.4594 64.65 16.9506C64.5833 16.4419 64.4667 15.9254 64.3 15.4013L69 12.21L67 8.88L61.7 11.0075C60.9333 10.2058 60.0667 9.53521 59.1 8.99563C58.1333 8.45604 57.0667 8.10917 55.9 7.955L55.2 2.775H50.8L50.1 7.955C48.9667 8.17083 47.9083 8.54083 46.925 9.065C45.9417 9.58917 45.0667 10.2367 44.3 11.0075L39 8.88L37 12.21L41.7 15.4013C41.5667 15.9254 41.4583 16.4419 41.375 16.9506C41.2917 17.4594 41.25 17.9758 41.25 18.5C41.25 19.0242 41.2917 19.5406 41.375 20.0494C41.4583 20.5581 41.5667 21.0746 41.7 21.5988L37 24.79L39 28.12L44.3 25.9925C45.1 26.7325 45.9917 27.3646 46.975 27.8888C47.9583 28.4129 49 28.7983 50.1 29.045L50.8 34.225Z" fill="#52397D"/>
<path d="M65.4 74L64.4 68.1725C63.7667 67.9567 63.1 67.6638 62.4 67.2938C61.7 66.9238 61.0833 66.5383 60.55 66.1375L54.65 68.635L50 61.05L55.4 57.3962C55.3333 57.1187 55.2917 56.8027 55.275 56.4481C55.2583 56.0935 55.25 55.7775 55.25 55.5C55.25 55.2225 55.2583 54.9065 55.275 54.5519C55.2917 54.1973 55.3333 53.8813 55.4 53.6038L50 49.95L54.65 42.365L60.55 44.8625C61.0833 44.4617 61.7 44.0763 62.4 43.7063C63.1 43.3363 63.7667 43.0588 64.4 42.8738L65.4 37H74.6L75.6 42.8275C76.2333 43.0433 76.9083 43.3285 77.625 43.6831C78.3417 44.0377 78.95 44.4308 79.45 44.8625L85.35 42.365L90 49.95L84.6 53.5112C84.6667 53.8196 84.7083 54.151 84.725 54.5056C84.7417 54.8602 84.75 55.1917 84.75 55.5C84.75 55.8083 84.7417 56.1321 84.725 56.4712C84.7083 56.8104 84.6667 57.1342 84.6 57.4425L90 61.05L85.35 68.635L79.45 66.1375C78.9167 66.5383 78.3083 66.9315 77.625 67.3169C76.9417 67.7023 76.2667 67.9875 75.6 68.1725L74.6 74H65.4ZM70 61.5125C71.8 61.5125 73.3333 60.9267 74.6 59.755C75.8667 58.5833 76.5 57.165 76.5 55.5C76.5 53.835 75.8667 52.4167 74.6 51.245C73.3333 50.0733 71.8 49.4875 70 49.4875C68.2 49.4875 66.6667 50.0733 65.4 51.245C64.1333 52.4167 63.5 53.835 63.5 55.5C63.5 57.165 64.1333 58.5833 65.4 59.755C66.6667 60.9267 68.2 61.5125 70 61.5125ZM70 58.7375C69.0333 58.7375 68.2083 58.4215 67.525 57.7894C66.8417 57.1573 66.5 56.3942 66.5 55.5C66.5 54.6058 66.8417 53.8427 67.525 53.2106C68.2083 52.5785 69.0333 52.2625 70 52.2625C70.9667 52.2625 71.7917 52.5785 72.475 53.2106C73.1583 53.8427 73.5 54.6058 73.5 55.5C73.5 56.3942 73.1583 57.1573 72.475 57.7894C71.7917 58.4215 70.9667 58.7375 70 58.7375ZM67.8 71.225H72.2L72.9 66.045C74 65.7983 75.0417 65.4129 76.025 64.8888C77.0083 64.3646 77.9 63.7325 78.7 62.9925L84 65.12L86 61.79L81.3 58.5988C81.4333 58.0746 81.5417 57.5581 81.625 57.0494C81.7083 56.5406 81.75 56.0242 81.75 55.5C81.75 54.9758 81.7167 54.4594 81.65 53.9506C81.5833 53.4419 81.4667 52.9254 81.3 52.4013L86 49.21L84 45.88L78.7 48.0075C77.9333 47.2058 77.0667 46.5352 76.1 45.9956C75.1333 45.456 74.0667 45.1092 72.9 44.955L72.2 39.775H67.8L67.1 44.955C65.9667 45.1708 64.9083 45.5408 63.925 46.065C62.9417 46.5892 62.0667 47.2367 61.3 48.0075L56 45.88L54 49.21L58.7 52.4013C58.5667 52.9254 58.4583 53.4419 58.375 53.9506C58.2917 54.4594 58.25 54.9758 58.25 55.5C58.25 56.0242 58.2917 56.5406 58.375 57.0494C58.4583 57.5581 58.5667 58.0746 58.7 58.5988L54 61.79L56 65.12L61.3 62.9925C62.1 63.7325 62.9917 64.3646 63.975 64.8888C64.9583 65.4129 66 65.7983 67.1 66.045L67.8 71.225Z" fill="#52397D"/>
</svg>
