<svg width="79" height="63" viewBox="0 0 79 63" fill="none" xmlns="http://www.w3.org/2000/svg">
<path d="M7.896 40.838C8.806 40.838 9.541 40.978 10.101 41.258C10.661 41.524 11.186 41.839 11.676 42.203C11.858 42.343 11.998 42.413 12.096 42.413C12.362 42.413 12.537 41.986 12.621 41.132H13.104C13.076 41.65 13.055 42.28 13.041 43.022C13.027 43.764 13.02 44.744 13.02 45.962H12.537C12.439 45.374 12.32 44.807 12.18 44.261C12.04 43.715 11.809 43.246 11.487 42.854C11.081 42.336 10.549 41.937 9.891 41.657C9.233 41.363 8.554 41.216 7.854 41.216C7.154 41.216 6.517 41.391 5.943 41.741C5.383 42.077 4.9 42.567 4.494 43.211C4.088 43.855 3.773 44.632 3.549 45.542C3.339 46.438 3.234 47.453 3.234 48.587C3.234 51.107 3.64 52.955 4.452 54.131C5.264 55.293 6.524 55.874 8.232 55.874C8.736 55.874 9.17 55.804 9.534 55.664C9.912 55.51 10.206 55.363 10.416 55.223C10.682 55.041 10.85 54.873 10.92 54.719C10.99 54.551 11.025 54.334 11.025 54.068V52.052C11.025 51.478 10.969 51.051 10.857 50.771C10.745 50.491 10.535 50.302 10.227 50.204C9.933 50.106 9.492 50.05 8.904 50.036V49.616C9.156 49.63 9.45 49.644 9.786 49.658C10.122 49.658 10.472 49.665 10.836 49.679C11.214 49.679 11.557 49.679 11.865 49.679C12.327 49.679 12.74 49.672 13.104 49.658C13.482 49.644 13.797 49.63 14.049 49.616V50.036C13.741 50.05 13.51 50.099 13.356 50.183C13.202 50.267 13.097 50.435 13.041 50.687C12.999 50.939 12.978 51.324 12.978 51.842V56H12.558C12.544 55.762 12.488 55.503 12.39 55.223C12.306 54.943 12.173 54.803 11.991 54.803C11.907 54.803 11.823 54.824 11.739 54.866C11.655 54.908 11.508 55.006 11.298 55.16C10.836 55.51 10.346 55.79 9.828 56C9.31 56.196 8.708 56.294 8.022 56.294C6.58 56.294 5.341 56 4.305 55.412C3.283 54.81 2.499 53.949 1.953 52.829C1.407 51.709 1.134 50.372 1.134 48.818C1.134 47.18 1.428 45.766 2.016 44.576C2.604 43.386 3.402 42.469 4.41 41.825C5.432 41.167 6.594 40.838 7.896 40.838ZM21.9056 44.891C22.2836 44.891 22.6126 44.968 22.8926 45.122C23.1866 45.276 23.4106 45.479 23.5646 45.731C23.7326 45.969 23.8166 46.242 23.8166 46.55C23.8166 46.9 23.7046 47.208 23.4806 47.474C23.2706 47.74 22.9836 47.873 22.6196 47.873C22.3256 47.873 22.0666 47.782 21.8426 47.6C21.6186 47.404 21.5066 47.131 21.5066 46.781C21.5066 46.515 21.5766 46.291 21.7166 46.109C21.8706 45.913 22.0386 45.759 22.2206 45.647C22.1226 45.507 21.9756 45.437 21.7796 45.437C21.3456 45.437 20.9466 45.57 20.5826 45.836C20.2186 46.088 19.9106 46.417 19.6586 46.823C19.4066 47.229 19.2106 47.663 19.0706 48.125C18.9306 48.573 18.8606 48.993 18.8606 49.385V53.837C18.8606 54.523 19.0566 54.985 19.4486 55.223C19.8546 55.447 20.4006 55.559 21.0866 55.559V56C20.7646 55.986 20.3096 55.972 19.7216 55.958C19.1336 55.93 18.5106 55.916 17.8526 55.916C17.3766 55.916 16.9006 55.93 16.4246 55.958C15.9626 55.972 15.6126 55.986 15.3746 56V55.559C15.9486 55.559 16.3546 55.454 16.5926 55.244C16.8446 55.034 16.9706 54.635 16.9706 54.047V47.474C16.9706 46.844 16.8586 46.382 16.6346 46.088C16.4106 45.78 15.9906 45.626 15.3746 45.626V45.185C15.8226 45.227 16.2566 45.248 16.6766 45.248C17.0826 45.248 17.4676 45.227 17.8316 45.185C18.2096 45.129 18.5526 45.052 18.8606 44.954V47.579C19.0146 47.173 19.2316 46.767 19.5116 46.361C19.8056 45.941 20.1556 45.591 20.5616 45.311C20.9676 45.031 21.4156 44.891 21.9056 44.891ZM29.461 44.891C30.357 44.891 31.162 45.087 31.876 45.479C32.59 45.871 33.157 46.487 33.577 47.327C34.011 48.167 34.228 49.259 34.228 50.603C34.228 51.947 34.011 53.039 33.577 53.879C33.157 54.705 32.59 55.314 31.876 55.706C31.162 56.098 30.357 56.294 29.461 56.294C28.579 56.294 27.774 56.098 27.046 55.706C26.332 55.314 25.758 54.705 25.324 53.879C24.904 53.039 24.694 51.947 24.694 50.603C24.694 49.259 24.904 48.167 25.324 47.327C25.758 46.487 26.332 45.871 27.046 45.479C27.774 45.087 28.579 44.891 29.461 44.891ZM29.461 45.311C28.663 45.311 28.005 45.724 27.487 46.55C26.983 47.376 26.731 48.727 26.731 50.603C26.731 52.479 26.983 53.83 27.487 54.656C28.005 55.468 28.663 55.874 29.461 55.874C30.259 55.874 30.91 55.468 31.414 54.656C31.932 53.83 32.191 52.479 32.191 50.603C32.191 48.727 31.932 47.376 31.414 46.55C30.91 45.724 30.259 45.311 29.461 45.311ZM45.3549 44.954V53.732C45.3549 54.362 45.4669 54.831 45.6909 55.139C45.9289 55.433 46.3489 55.58 46.9509 55.58V56.021C46.5169 55.979 46.0829 55.958 45.6489 55.958C45.2429 55.958 44.8509 55.979 44.4729 56.021C44.1089 56.063 43.7729 56.14 43.4649 56.252V53.774C43.1149 54.684 42.6179 55.335 41.9739 55.727C41.3439 56.105 40.6929 56.294 40.0209 56.294C39.5309 56.294 39.1039 56.224 38.7399 56.084C38.3759 55.944 38.0749 55.748 37.8369 55.496C37.5709 55.216 37.3889 54.852 37.2909 54.404C37.1929 53.956 37.1439 53.403 37.1439 52.745V47.474C37.1439 46.844 37.0319 46.382 36.8079 46.088C36.5839 45.78 36.1639 45.626 35.5479 45.626V45.185C35.9959 45.227 36.4299 45.248 36.8499 45.248C37.2559 45.248 37.6409 45.227 38.0049 45.185C38.3829 45.129 38.7259 45.052 39.0339 44.954V53.207C39.0339 53.641 39.0619 54.04 39.1179 54.404C39.1739 54.768 39.3139 55.062 39.5379 55.286C39.7619 55.51 40.1259 55.622 40.6299 55.622C41.1759 55.622 41.6589 55.454 42.0789 55.118C42.5129 54.782 42.8489 54.327 43.0869 53.753C43.3389 53.179 43.4649 52.535 43.4649 51.821V47.474C43.4649 46.844 43.3529 46.382 43.1289 46.088C42.9049 45.78 42.4849 45.626 41.8689 45.626V45.185C42.3169 45.227 42.7509 45.248 43.1709 45.248C43.5769 45.248 43.9619 45.227 44.3259 45.185C44.7039 45.129 45.0469 45.052 45.3549 44.954ZM51.3621 44.954V57.848C51.3621 58.45 51.5371 58.849 51.8871 59.045C52.2511 59.255 52.7481 59.36 53.3781 59.36V59.801C53.0701 59.787 52.6431 59.766 52.0971 59.738C51.5511 59.724 50.9701 59.717 50.3541 59.717C49.9201 59.717 49.4861 59.724 49.0521 59.738C48.6321 59.766 48.3101 59.787 48.0861 59.801V59.36C48.5901 59.36 48.9471 59.269 49.1571 59.087C49.3671 58.905 49.4721 58.562 49.4721 58.058V47.474C49.4721 46.844 49.3601 46.382 49.1361 46.088C48.9121 45.78 48.4921 45.626 47.8761 45.626V45.185C48.3241 45.227 48.7581 45.248 49.1781 45.248C49.5841 45.248 49.9691 45.227 50.3331 45.185C50.7111 45.129 51.0541 45.052 51.3621 44.954ZM54.7221 44.891C55.4641 44.891 56.1291 45.094 56.7171 45.5C57.3051 45.892 57.7671 46.473 58.1031 47.243C58.4531 48.013 58.6281 48.965 58.6281 50.099C58.6281 50.855 58.5371 51.604 58.3551 52.346C58.1731 53.074 57.8861 53.739 57.4941 54.341C57.1161 54.929 56.6191 55.405 56.0031 55.769C55.4011 56.119 54.6731 56.294 53.8191 56.294C53.1611 56.294 52.5871 56.14 52.0971 55.832C51.6211 55.524 51.2991 55.153 51.1311 54.719L51.3411 54.425C51.5371 54.817 51.8171 55.146 52.1811 55.412C52.5591 55.678 53.0281 55.811 53.5881 55.811C54.3721 55.811 54.9811 55.566 55.4151 55.076C55.8491 54.586 56.1501 53.935 56.3181 53.123C56.5001 52.297 56.5911 51.387 56.5911 50.393C56.5911 49.273 56.5001 48.356 56.3181 47.642C56.1361 46.928 55.8631 46.396 55.4991 46.046C55.1351 45.696 54.6871 45.521 54.1551 45.521C53.4691 45.521 52.8461 45.808 52.2861 46.382C51.7261 46.942 51.3691 47.796 51.2151 48.944L50.9631 48.65C51.1171 47.46 51.5371 46.536 52.2231 45.878C52.9231 45.22 53.7561 44.891 54.7221 44.891Z" fill="#52397D"/>
<path d="M24.526 29.364C24.982 29.364 25.36 29.418 25.66 29.526C25.96 29.622 26.206 29.748 26.398 29.904C26.554 30.024 26.68 30.156 26.776 30.3C26.872 30.444 26.944 30.588 26.992 30.732C27.04 30.876 27.064 31.014 27.064 31.146C27.064 31.446 26.956 31.68 26.74 31.848C26.536 32.016 26.308 32.1 26.056 32.1C25.816 32.1 25.6 32.022 25.408 31.866C25.216 31.71 25.12 31.488 25.12 31.2C25.12 30.936 25.21 30.714 25.39 30.534C25.57 30.342 25.798 30.234 26.074 30.21C26.026 30.054 25.876 29.922 25.624 29.814C25.384 29.694 25.078 29.634 24.706 29.634C24.094 29.634 23.59 29.82 23.194 30.192C22.81 30.552 22.618 31.08 22.618 31.776C22.618 32.112 22.678 32.454 22.798 32.802C22.93 33.15 23.176 33.492 23.536 33.828C23.74 33.792 23.95 33.768 24.166 33.756C24.382 33.732 24.544 33.72 24.652 33.72C24.868 33.72 25.042 33.756 25.174 33.828C25.306 33.9 25.372 34.002 25.372 34.134C25.372 34.242 25.324 34.326 25.228 34.386C25.144 34.446 25.024 34.476 24.868 34.476C24.64 34.476 24.4 34.428 24.148 34.332C23.896 34.224 23.698 34.14 23.554 34.08C22.858 34.284 22.294 34.62 21.862 35.088C21.43 35.544 21.214 36.192 21.214 37.032C21.214 37.86 21.43 38.562 21.862 39.138C22.294 39.714 22.87 40.158 23.59 40.47C24.322 40.77 25.138 40.92 26.038 40.92C26.674 40.92 27.274 40.848 27.838 40.704C28.414 40.548 28.918 40.326 29.35 40.038C29.794 39.75 30.142 39.408 30.394 39.012C30.646 38.604 30.772 38.142 30.772 37.626C30.772 37.398 30.724 37.11 30.628 36.762C30.532 36.402 30.334 36.054 30.034 35.718C29.734 35.37 29.272 35.1 28.648 34.908L28.864 34.728C29.74 34.992 30.364 35.418 30.736 36.006C31.108 36.582 31.294 37.23 31.294 37.95C31.294 38.67 31.078 39.36 30.646 40.02C30.214 40.68 29.59 41.22 28.774 41.64C27.958 42.048 26.968 42.252 25.804 42.252C25.024 42.252 24.28 42.15 23.572 41.946C22.876 41.742 22.258 41.448 21.718 41.064C21.178 40.668 20.752 40.194 20.44 39.642C20.128 39.09 19.972 38.466 19.972 37.77C19.972 37.122 20.098 36.57 20.35 36.114C20.602 35.646 20.914 35.262 21.286 34.962C21.658 34.662 22.03 34.434 22.402 34.278C22.774 34.11 23.074 33.996 23.302 33.936C22.906 33.756 22.57 33.546 22.294 33.306C22.03 33.054 21.826 32.784 21.682 32.496C21.55 32.196 21.484 31.902 21.484 31.614C21.484 31.326 21.55 31.05 21.682 30.786C21.814 30.51 22.006 30.264 22.258 30.048C22.51 29.832 22.822 29.664 23.194 29.544C23.578 29.424 24.022 29.364 24.526 29.364ZM31.078 29.004C31.822 29.004 32.446 29.22 32.95 29.652C33.454 30.072 33.706 30.666 33.706 31.434C33.706 31.842 33.628 32.208 33.472 32.532C33.328 32.844 33.124 33.12 32.86 33.36C32.608 33.6 32.32 33.798 31.996 33.954C31.72 34.086 31.354 34.23 30.898 34.386C30.454 34.542 29.974 34.698 29.458 34.854C28.954 35.01 28.468 35.166 28 35.322C27.544 35.466 27.172 35.592 26.884 35.7C26.44 35.868 26.062 36.078 25.75 36.33C25.45 36.57 25.3 36.882 25.3 37.266C25.3 37.578 25.39 37.842 25.57 38.058C25.75 38.274 25.966 38.436 26.218 38.544C26.482 38.652 26.728 38.706 26.956 38.706C27.064 38.706 27.196 38.694 27.352 38.67C27.52 38.634 27.67 38.586 27.802 38.526C27.934 38.466 28.012 38.394 28.036 38.31C27.844 38.274 27.652 38.19 27.46 38.058C27.28 37.914 27.19 37.692 27.19 37.392C27.19 37.104 27.286 36.876 27.478 36.708C27.67 36.54 27.904 36.456 28.18 36.456C28.468 36.456 28.696 36.546 28.864 36.726C29.044 36.906 29.134 37.14 29.134 37.428C29.134 37.764 29.02 38.052 28.792 38.292C28.576 38.52 28.3 38.694 27.964 38.814C27.64 38.922 27.316 38.976 26.992 38.976C26.656 38.976 26.314 38.904 25.966 38.76C25.618 38.616 25.33 38.394 25.102 38.094C24.874 37.782 24.76 37.374 24.76 36.87C24.76 36.45 24.85 36.078 25.03 35.754C25.222 35.43 25.504 35.142 25.876 34.89C26.248 34.638 26.704 34.422 27.244 34.242C27.604 34.122 28.042 33.99 28.558 33.846C29.074 33.702 29.602 33.546 30.142 33.378C30.694 33.21 31.192 33.024 31.636 32.82C32.236 32.544 32.644 32.262 32.86 31.974C33.076 31.686 33.184 31.392 33.184 31.092C33.184 30.744 33.088 30.438 32.896 30.174C32.704 29.898 32.446 29.682 32.122 29.526C31.81 29.358 31.468 29.274 31.096 29.274C30.952 29.274 30.832 29.286 30.736 29.31C30.64 29.334 30.58 29.376 30.556 29.436C30.724 29.52 30.85 29.64 30.934 29.796C31.018 29.952 31.06 30.108 31.06 30.264C31.06 30.516 30.958 30.726 30.754 30.894C30.562 31.062 30.328 31.146 30.052 31.146C29.824 31.146 29.608 31.074 29.404 30.93C29.2 30.774 29.098 30.546 29.098 30.246C29.098 29.934 29.2 29.688 29.404 29.508C29.62 29.328 29.878 29.202 30.178 29.13C30.49 29.046 30.79 29.004 31.078 29.004Z" fill="#52397D"/>
<path d="M59.232 15.344V15.984C58.5067 16.0053 57.9627 16.0907 57.6 16.24C57.2373 16.368 56.992 16.624 56.864 17.008C56.7573 17.3707 56.704 17.9467 56.704 18.736V34.608C56.704 35.376 56.7573 35.952 56.864 36.336C56.992 36.72 57.2373 36.976 57.6 37.104C57.9627 37.232 58.5067 37.3173 59.232 37.36V38C58.6987 37.9573 58.0373 37.936 57.248 37.936C56.4587 37.9147 55.6587 37.904 54.848 37.904C53.952 37.904 53.1093 37.9147 52.32 37.936C51.5307 37.936 50.9013 37.9573 50.432 38V37.36C51.1573 37.3173 51.7013 37.232 52.064 37.104C52.448 36.976 52.704 36.72 52.832 36.336C52.96 35.952 53.024 35.376 53.024 34.608V17.104L53.184 17.168L45.312 38.128H44.8L36.544 17.392V33.776C36.544 34.672 36.608 35.376 36.736 35.888C36.864 36.3787 37.1413 36.7307 37.568 36.944C37.9947 37.1573 38.6453 37.296 39.52 37.36V38C39.1147 37.9573 38.592 37.936 37.952 37.936C37.3333 37.9147 36.7467 37.904 36.192 37.904C35.6587 37.904 35.1253 37.9147 34.592 37.936C34.0587 37.936 33.6213 37.9573 33.28 38V37.36C33.984 37.296 34.5173 37.168 34.88 36.976C35.2427 36.7627 35.488 36.4107 35.616 35.92C35.744 35.4293 35.808 34.7573 35.808 33.904V18.736C35.808 17.9467 35.744 17.3707 35.616 17.008C35.488 16.624 35.2427 16.368 34.88 16.24C34.5173 16.0907 33.984 16.0053 33.28 15.984V15.344C33.6213 15.3653 34.0587 15.3867 34.592 15.408C35.1253 15.4293 35.6587 15.44 36.192 15.44C36.8107 15.44 37.4293 15.4293 38.048 15.408C38.688 15.3867 39.232 15.3653 39.68 15.344L46.752 33.52L46.144 33.936L53.088 15.44C53.3653 15.44 53.6533 15.44 53.952 15.44C54.2507 15.44 54.5493 15.44 54.848 15.44C55.6587 15.44 56.4587 15.4293 57.248 15.408C58.0373 15.3867 58.6987 15.3653 59.232 15.344Z" fill="#52397D"/>
<path d="M10.48 14.96C11.6107 14.96 12.4747 15.088 13.072 15.344C13.6693 15.6 14.192 15.8773 14.64 16.176C14.896 16.3253 15.0987 16.4427 15.248 16.528C15.4187 16.592 15.5787 16.624 15.728 16.624C15.9413 16.624 16.0907 16.5067 16.176 16.272C16.2827 16.0373 16.368 15.6853 16.432 15.216H17.168C17.1467 15.6 17.1147 16.0587 17.072 16.592C17.0507 17.104 17.0293 17.7867 17.008 18.64C17.008 19.4933 17.008 20.6133 17.008 22H16.272C16.208 20.9547 15.9733 19.9413 15.568 18.96C15.184 17.9787 14.608 17.1787 13.84 16.56C13.0933 15.9413 12.1333 15.632 10.96 15.632C9.872 15.632 8.96533 15.9627 8.24 16.624C7.536 17.264 7.184 18.1173 7.184 19.184C7.184 20.1227 7.41867 20.912 7.888 21.552C8.35733 22.1707 8.99733 22.7573 9.808 23.312C10.64 23.8453 11.5787 24.4427 12.624 25.104C13.6907 25.7867 14.6507 26.4693 15.504 27.152C16.3573 27.8133 17.0293 28.5493 17.52 29.36C18.0107 30.1707 18.256 31.152 18.256 32.304C18.256 33.6907 17.9253 34.8427 17.264 35.76C16.624 36.656 15.76 37.328 14.672 37.776C13.584 38.224 12.3893 38.448 11.088 38.448C9.89333 38.448 8.944 38.32 8.24 38.064C7.536 37.808 6.93867 37.5413 6.448 37.264C5.97867 36.9653 5.616 36.816 5.36 36.816C5.14667 36.816 4.98667 36.9333 4.88 37.168C4.79467 37.4027 4.72 37.7547 4.656 38.224H3.92C3.96267 37.7547 3.984 37.2107 3.984 36.592C4.00533 35.952 4.016 35.12 4.016 34.096C4.03733 33.072 4.048 31.7813 4.048 30.224H4.784C4.86933 31.5467 5.104 32.784 5.488 33.936C5.89333 35.088 6.50133 36.016 7.312 36.72C8.144 37.4027 9.24267 37.744 10.608 37.744C11.3333 37.744 12.0053 37.6053 12.624 37.328C13.2427 37.0507 13.744 36.6133 14.128 36.016C14.512 35.4187 14.704 34.6507 14.704 33.712C14.704 32.8373 14.4907 32.0693 14.064 31.408C13.6587 30.7467 13.0827 30.1387 12.336 29.584C11.6107 29.008 10.7573 28.4213 9.776 27.824C8.77333 27.184 7.83467 26.544 6.96 25.904C6.08533 25.264 5.38133 24.5173 4.848 23.664C4.336 22.8107 4.08 21.7973 4.08 20.624C4.08 19.3227 4.37867 18.256 4.976 17.424C5.59467 16.592 6.384 15.9733 7.344 15.568C8.32533 15.1627 9.37067 14.96 10.48 14.96Z" fill="#52397D"/>
<path d="M24.005 23L23.68 21.11C23.4742 21.04 23.2575 20.945 23.03 20.825C22.8025 20.705 22.6021 20.58 22.4288 20.45L20.5112 21.26L19 18.8L20.755 17.615C20.7333 17.525 20.7198 17.4225 20.7144 17.3075C20.709 17.1925 20.7063 17.09 20.7063 17C20.7063 16.91 20.709 16.8075 20.7144 16.6925C20.7198 16.5775 20.7333 16.475 20.755 16.385L19 15.2L20.5112 12.74L22.4288 13.55C22.6021 13.42 22.8025 13.295 23.03 13.175C23.2575 13.055 23.4742 12.965 23.68 12.905L24.005 11H26.995L27.32 12.89C27.5258 12.96 27.7452 13.0525 27.9781 13.1675C28.211 13.2825 28.4088 13.41 28.5713 13.55L30.4887 12.74L32 15.2L30.245 16.355C30.2667 16.455 30.2802 16.5625 30.2856 16.6775C30.291 16.7925 30.2937 16.9 30.2937 17C30.2937 17.1 30.291 17.205 30.2856 17.315C30.2802 17.425 30.2667 17.53 30.245 17.63L32 18.8L30.4887 21.26L28.5713 20.45C28.3979 20.58 28.2002 20.7075 27.9781 20.8325C27.756 20.9575 27.5367 21.05 27.32 21.11L26.995 23H24.005ZM25.5 18.95C26.085 18.95 26.5833 18.76 26.995 18.38C27.4067 18 27.6125 17.54 27.6125 17C27.6125 16.46 27.4067 16 26.995 15.62C26.5833 15.24 26.085 15.05 25.5 15.05C24.915 15.05 24.4167 15.24 24.005 15.62C23.5933 16 23.3875 16.46 23.3875 17C23.3875 17.54 23.5933 18 24.005 18.38C24.4167 18.76 24.915 18.95 25.5 18.95ZM25.5 18.05C25.1858 18.05 24.9177 17.9475 24.6956 17.7425C24.4735 17.5375 24.3625 17.29 24.3625 17C24.3625 16.71 24.4735 16.4625 24.6956 16.2575C24.9177 16.0525 25.1858 15.95 25.5 15.95C25.8142 15.95 26.0823 16.0525 26.3044 16.2575C26.5265 16.4625 26.6375 16.71 26.6375 17C26.6375 17.29 26.5265 17.5375 26.3044 17.7425C26.0823 17.9475 25.8142 18.05 25.5 18.05ZM24.785 22.1H26.215L26.4425 20.42C26.8 20.34 27.1385 20.215 27.4581 20.045C27.7777 19.875 28.0675 19.67 28.3275 19.43L30.05 20.12L30.7 19.04L29.1725 18.005C29.2158 17.835 29.251 17.6675 29.2781 17.5025C29.3052 17.3375 29.3188 17.17 29.3188 17C29.3188 16.83 29.3079 16.6625 29.2863 16.4975C29.2646 16.3325 29.2267 16.165 29.1725 15.995L30.7 14.96L30.05 13.88L28.3275 14.57C28.0783 14.31 27.7967 14.0925 27.4825 13.9175C27.1683 13.7425 26.8217 13.63 26.4425 13.58L26.215 11.9H24.785L24.5575 13.58C24.1892 13.65 23.8452 13.77 23.5256 13.94C23.206 14.11 22.9217 14.32 22.6725 14.57L20.95 13.88L20.3 14.96L21.8275 15.995C21.7842 16.165 21.749 16.3325 21.7219 16.4975C21.6948 16.6625 21.6813 16.83 21.6813 17C21.6813 17.17 21.6948 17.3375 21.7219 17.5025C21.749 17.6675 21.7842 17.835 21.8275 18.005L20.3 19.04L20.95 20.12L22.6725 19.43C22.9325 19.67 23.2223 19.875 23.5419 20.045C23.8615 20.215 24.2 20.34 24.5575 20.42L24.785 22.1Z" fill="#52397D"/>
<path d="M33.005 14L32.68 12.11C32.4742 12.04 32.2575 11.945 32.03 11.825C31.8025 11.705 31.6021 11.58 31.4288 11.45L29.5112 12.26L28 9.8L29.755 8.615C29.7333 8.525 29.7198 8.4225 29.7144 8.3075C29.709 8.1925 29.7063 8.09 29.7063 8C29.7063 7.91 29.709 7.8075 29.7144 7.6925C29.7198 7.5775 29.7333 7.475 29.755 7.385L28 6.2L29.5112 3.74L31.4288 4.55C31.6021 4.42 31.8025 4.295 32.03 4.175C32.2575 4.055 32.4742 3.965 32.68 3.905L33.005 2H35.995L36.32 3.89C36.5258 3.96 36.7452 4.0525 36.9781 4.1675C37.211 4.2825 37.4088 4.41 37.5713 4.55L39.4887 3.74L41 6.2L39.245 7.355C39.2667 7.455 39.2802 7.5625 39.2856 7.6775C39.291 7.7925 39.2937 7.9 39.2937 8C39.2937 8.1 39.291 8.205 39.2856 8.315C39.2802 8.425 39.2667 8.53 39.245 8.63L41 9.8L39.4887 12.26L37.5713 11.45C37.3979 11.58 37.2002 11.7075 36.9781 11.8325C36.756 11.9575 36.5367 12.05 36.32 12.11L35.995 14H33.005ZM34.5 9.95C35.085 9.95 35.5833 9.76 35.995 9.38C36.4067 9 36.6125 8.54 36.6125 8C36.6125 7.46 36.4067 7 35.995 6.62C35.5833 6.24 35.085 6.05 34.5 6.05C33.915 6.05 33.4167 6.24 33.005 6.62C32.5933 7 32.3875 7.46 32.3875 8C32.3875 8.54 32.5933 9 33.005 9.38C33.4167 9.76 33.915 9.95 34.5 9.95ZM34.5 9.05C34.1858 9.05 33.9177 8.9475 33.6956 8.7425C33.4735 8.5375 33.3625 8.29 33.3625 8C33.3625 7.71 33.4735 7.4625 33.6956 7.2575C33.9177 7.0525 34.1858 6.95 34.5 6.95C34.8142 6.95 35.0823 7.0525 35.3044 7.2575C35.5265 7.4625 35.6375 7.71 35.6375 8C35.6375 8.29 35.5265 8.5375 35.3044 8.7425C35.0823 8.9475 34.8142 9.05 34.5 9.05ZM33.785 13.1H35.215L35.4425 11.42C35.8 11.34 36.1385 11.215 36.4581 11.045C36.7777 10.875 37.0675 10.67 37.3275 10.43L39.05 11.12L39.7 10.04L38.1725 9.005C38.2158 8.835 38.251 8.6675 38.2781 8.5025C38.3052 8.3375 38.3188 8.17 38.3188 8C38.3188 7.83 38.3079 7.6625 38.2863 7.4975C38.2646 7.3325 38.2267 7.165 38.1725 6.995L39.7 5.96L39.05 4.88L37.3275 5.57C37.0783 5.31 36.7967 5.0925 36.4825 4.9175C36.1683 4.7425 35.8217 4.63 35.4425 4.58L35.215 2.9H33.785L33.5575 4.58C33.1892 4.65 32.8452 4.77 32.5256 4.94C32.206 5.11 31.9217 5.32 31.6725 5.57L29.95 4.88L29.3 5.96L30.8275 6.995C30.7842 7.165 30.749 7.3325 30.7219 7.4975C30.6948 7.6625 30.6813 7.83 30.6813 8C30.6813 8.17 30.6948 8.3375 30.7219 8.5025C30.749 8.6675 30.7842 8.835 30.8275 9.005L29.3 10.04L29.95 11.12L31.6725 10.43C31.9325 10.67 32.2223 10.875 32.5419 11.045C32.8615 11.215 33.2 11.34 33.5575 11.42L33.785 13.1Z" fill="#52397D"/>
<path d="M20.005 12L19.68 10.11C19.4742 10.04 19.2575 9.945 19.03 9.825C18.8025 9.705 18.6021 9.58 18.4288 9.45L16.5112 10.26L15 7.8L16.755 6.615C16.7333 6.525 16.7198 6.4225 16.7144 6.3075C16.709 6.1925 16.7063 6.09 16.7063 6C16.7063 5.91 16.709 5.8075 16.7144 5.6925C16.7198 5.5775 16.7333 5.475 16.755 5.385L15 4.2L16.5112 1.74L18.4288 2.55C18.6021 2.42 18.8025 2.295 19.03 2.175C19.2575 2.055 19.4742 1.965 19.68 1.905L20.005 0H22.995L23.32 1.89C23.5258 1.96 23.7452 2.0525 23.9781 2.1675C24.211 2.2825 24.4088 2.41 24.5713 2.55L26.4887 1.74L28 4.2L26.245 5.355C26.2667 5.455 26.2802 5.5625 26.2856 5.6775C26.291 5.7925 26.2937 5.9 26.2937 6C26.2937 6.1 26.291 6.205 26.2856 6.315C26.2802 6.425 26.2667 6.53 26.245 6.63L28 7.8L26.4887 10.26L24.5713 9.45C24.3979 9.58 24.2002 9.7075 23.9781 9.8325C23.756 9.9575 23.5367 10.05 23.32 10.11L22.995 12H20.005ZM21.5 7.95C22.085 7.95 22.5833 7.76 22.995 7.38C23.4067 7 23.6125 6.54 23.6125 6C23.6125 5.46 23.4067 5 22.995 4.62C22.5833 4.24 22.085 4.05 21.5 4.05C20.915 4.05 20.4167 4.24 20.005 4.62C19.5933 5 19.3875 5.46 19.3875 6C19.3875 6.54 19.5933 7 20.005 7.38C20.4167 7.76 20.915 7.95 21.5 7.95ZM21.5 7.05C21.1858 7.05 20.9177 6.9475 20.6956 6.7425C20.4735 6.5375 20.3625 6.29 20.3625 6C20.3625 5.71 20.4735 5.4625 20.6956 5.2575C20.9177 5.0525 21.1858 4.95 21.5 4.95C21.8142 4.95 22.0823 5.0525 22.3044 5.2575C22.5265 5.4625 22.6375 5.71 22.6375 6C22.6375 6.29 22.5265 6.5375 22.3044 6.7425C22.0823 6.9475 21.8142 7.05 21.5 7.05ZM20.785 11.1H22.215L22.4425 9.42C22.8 9.34 23.1385 9.215 23.4581 9.045C23.7777 8.875 24.0675 8.67 24.3275 8.43L26.05 9.12L26.7 8.04L25.1725 7.005C25.2158 6.835 25.251 6.6675 25.2781 6.5025C25.3052 6.3375 25.3188 6.17 25.3188 6C25.3188 5.83 25.3079 5.6625 25.2863 5.4975C25.2646 5.3325 25.2267 5.165 25.1725 4.995L26.7 3.96L26.05 2.88L24.3275 3.57C24.0783 3.31 23.7967 3.0925 23.4825 2.9175C23.1683 2.7425 22.8217 2.63 22.4425 2.58L22.215 0.9H20.785L20.5575 2.58C20.1892 2.65 19.8452 2.77 19.5256 2.94C19.206 3.11 18.9217 3.32 18.6725 3.57L16.95 2.88L16.3 3.96L17.8275 4.995C17.7842 5.165 17.749 5.3325 17.7219 5.4975C17.6948 5.6625 17.6813 5.83 17.6813 6C17.6813 6.17 17.6948 6.3375 17.7219 6.5025C17.749 6.6675 17.7842 6.835 17.8275 7.005L16.3 8.04L16.95 9.12L18.6725 8.43C18.9325 8.67 19.2223 8.875 19.5419 9.045C19.8615 9.215 20.2 9.34 20.5575 9.42L20.785 11.1Z" fill="#52397D"/>
</svg>
