<svg width="79" height="65" viewBox="0 0 79 65" fill="none" xmlns="http://www.w3.org/2000/svg">
<path d="M7.896 42.838C8.806 42.838 9.541 42.978 10.101 43.258C10.661 43.524 11.186 43.839 11.676 44.203C11.858 44.343 11.998 44.413 12.096 44.413C12.362 44.413 12.537 43.986 12.621 43.132H13.104C13.076 43.65 13.055 44.28 13.041 45.022C13.027 45.764 13.02 46.744 13.02 47.962H12.537C12.439 47.374 12.32 46.807 12.18 46.261C12.04 45.715 11.809 45.246 11.487 44.854C11.081 44.336 10.549 43.937 9.891 43.657C9.233 43.363 8.554 43.216 7.854 43.216C7.154 43.216 6.517 43.391 5.943 43.741C5.383 44.077 4.9 44.567 4.494 45.211C4.088 45.855 3.773 46.632 3.549 47.542C3.339 48.438 3.234 49.453 3.234 50.587C3.234 53.107 3.64 54.955 4.452 56.131C5.264 57.293 6.524 57.874 8.232 57.874C8.736 57.874 9.17 57.804 9.534 57.664C9.912 57.51 10.206 57.363 10.416 57.223C10.682 57.041 10.85 56.873 10.92 56.719C10.99 56.551 11.025 56.334 11.025 56.068V54.052C11.025 53.478 10.969 53.051 10.857 52.771C10.745 52.491 10.535 52.302 10.227 52.204C9.933 52.106 9.492 52.05 8.904 52.036V51.616C9.156 51.63 9.45 51.644 9.786 51.658C10.122 51.658 10.472 51.665 10.836 51.679C11.214 51.679 11.557 51.679 11.865 51.679C12.327 51.679 12.74 51.672 13.104 51.658C13.482 51.644 13.797 51.63 14.049 51.616V52.036C13.741 52.05 13.51 52.099 13.356 52.183C13.202 52.267 13.097 52.435 13.041 52.687C12.999 52.939 12.978 53.324 12.978 53.842V58H12.558C12.544 57.762 12.488 57.503 12.39 57.223C12.306 56.943 12.173 56.803 11.991 56.803C11.907 56.803 11.823 56.824 11.739 56.866C11.655 56.908 11.508 57.006 11.298 57.16C10.836 57.51 10.346 57.79 9.828 58C9.31 58.196 8.708 58.294 8.022 58.294C6.58 58.294 5.341 58 4.305 57.412C3.283 56.81 2.499 55.949 1.953 54.829C1.407 53.709 1.134 52.372 1.134 50.818C1.134 49.18 1.428 47.766 2.016 46.576C2.604 45.386 3.402 44.469 4.41 43.825C5.432 43.167 6.594 42.838 7.896 42.838ZM21.9056 46.891C22.2836 46.891 22.6126 46.968 22.8926 47.122C23.1866 47.276 23.4106 47.479 23.5646 47.731C23.7326 47.969 23.8166 48.242 23.8166 48.55C23.8166 48.9 23.7046 49.208 23.4806 49.474C23.2706 49.74 22.9836 49.873 22.6196 49.873C22.3256 49.873 22.0666 49.782 21.8426 49.6C21.6186 49.404 21.5066 49.131 21.5066 48.781C21.5066 48.515 21.5766 48.291 21.7166 48.109C21.8706 47.913 22.0386 47.759 22.2206 47.647C22.1226 47.507 21.9756 47.437 21.7796 47.437C21.3456 47.437 20.9466 47.57 20.5826 47.836C20.2186 48.088 19.9106 48.417 19.6586 48.823C19.4066 49.229 19.2106 49.663 19.0706 50.125C18.9306 50.573 18.8606 50.993 18.8606 51.385V55.837C18.8606 56.523 19.0566 56.985 19.4486 57.223C19.8546 57.447 20.4006 57.559 21.0866 57.559V58C20.7646 57.986 20.3096 57.972 19.7216 57.958C19.1336 57.93 18.5106 57.916 17.8526 57.916C17.3766 57.916 16.9006 57.93 16.4246 57.958C15.9626 57.972 15.6126 57.986 15.3746 58V57.559C15.9486 57.559 16.3546 57.454 16.5926 57.244C16.8446 57.034 16.9706 56.635 16.9706 56.047V49.474C16.9706 48.844 16.8586 48.382 16.6346 48.088C16.4106 47.78 15.9906 47.626 15.3746 47.626V47.185C15.8226 47.227 16.2566 47.248 16.6766 47.248C17.0826 47.248 17.4676 47.227 17.8316 47.185C18.2096 47.129 18.5526 47.052 18.8606 46.954V49.579C19.0146 49.173 19.2316 48.767 19.5116 48.361C19.8056 47.941 20.1556 47.591 20.5616 47.311C20.9676 47.031 21.4156 46.891 21.9056 46.891ZM29.461 46.891C30.357 46.891 31.162 47.087 31.876 47.479C32.59 47.871 33.157 48.487 33.577 49.327C34.011 50.167 34.228 51.259 34.228 52.603C34.228 53.947 34.011 55.039 33.577 55.879C33.157 56.705 32.59 57.314 31.876 57.706C31.162 58.098 30.357 58.294 29.461 58.294C28.579 58.294 27.774 58.098 27.046 57.706C26.332 57.314 25.758 56.705 25.324 55.879C24.904 55.039 24.694 53.947 24.694 52.603C24.694 51.259 24.904 50.167 25.324 49.327C25.758 48.487 26.332 47.871 27.046 47.479C27.774 47.087 28.579 46.891 29.461 46.891ZM29.461 47.311C28.663 47.311 28.005 47.724 27.487 48.55C26.983 49.376 26.731 50.727 26.731 52.603C26.731 54.479 26.983 55.83 27.487 56.656C28.005 57.468 28.663 57.874 29.461 57.874C30.259 57.874 30.91 57.468 31.414 56.656C31.932 55.83 32.191 54.479 32.191 52.603C32.191 50.727 31.932 49.376 31.414 48.55C30.91 47.724 30.259 47.311 29.461 47.311ZM45.3549 46.954V55.732C45.3549 56.362 45.4669 56.831 45.6909 57.139C45.9289 57.433 46.3489 57.58 46.9509 57.58V58.021C46.5169 57.979 46.0829 57.958 45.6489 57.958C45.2429 57.958 44.8509 57.979 44.4729 58.021C44.1089 58.063 43.7729 58.14 43.4649 58.252V55.774C43.1149 56.684 42.6179 57.335 41.9739 57.727C41.3439 58.105 40.6929 58.294 40.0209 58.294C39.5309 58.294 39.1039 58.224 38.7399 58.084C38.3759 57.944 38.0749 57.748 37.8369 57.496C37.5709 57.216 37.3889 56.852 37.2909 56.404C37.1929 55.956 37.1439 55.403 37.1439 54.745V49.474C37.1439 48.844 37.0319 48.382 36.8079 48.088C36.5839 47.78 36.1639 47.626 35.5479 47.626V47.185C35.9959 47.227 36.4299 47.248 36.8499 47.248C37.2559 47.248 37.6409 47.227 38.0049 47.185C38.3829 47.129 38.7259 47.052 39.0339 46.954V55.207C39.0339 55.641 39.0619 56.04 39.1179 56.404C39.1739 56.768 39.3139 57.062 39.5379 57.286C39.7619 57.51 40.1259 57.622 40.6299 57.622C41.1759 57.622 41.6589 57.454 42.0789 57.118C42.5129 56.782 42.8489 56.327 43.0869 55.753C43.3389 55.179 43.4649 54.535 43.4649 53.821V49.474C43.4649 48.844 43.3529 48.382 43.1289 48.088C42.9049 47.78 42.4849 47.626 41.8689 47.626V47.185C42.3169 47.227 42.7509 47.248 43.1709 47.248C43.5769 47.248 43.9619 47.227 44.3259 47.185C44.7039 47.129 45.0469 47.052 45.3549 46.954ZM51.3621 46.954V59.848C51.3621 60.45 51.5371 60.849 51.8871 61.045C52.2511 61.255 52.7481 61.36 53.3781 61.36V61.801C53.0701 61.787 52.6431 61.766 52.0971 61.738C51.5511 61.724 50.9701 61.717 50.3541 61.717C49.9201 61.717 49.4861 61.724 49.0521 61.738C48.6321 61.766 48.3101 61.787 48.0861 61.801V61.36C48.5901 61.36 48.9471 61.269 49.1571 61.087C49.3671 60.905 49.4721 60.562 49.4721 60.058V49.474C49.4721 48.844 49.3601 48.382 49.1361 48.088C48.9121 47.78 48.4921 47.626 47.8761 47.626V47.185C48.3241 47.227 48.7581 47.248 49.1781 47.248C49.5841 47.248 49.9691 47.227 50.3331 47.185C50.7111 47.129 51.0541 47.052 51.3621 46.954ZM54.7221 46.891C55.4641 46.891 56.1291 47.094 56.7171 47.5C57.3051 47.892 57.7671 48.473 58.1031 49.243C58.4531 50.013 58.6281 50.965 58.6281 52.099C58.6281 52.855 58.5371 53.604 58.3551 54.346C58.1731 55.074 57.8861 55.739 57.4941 56.341C57.1161 56.929 56.6191 57.405 56.0031 57.769C55.4011 58.119 54.6731 58.294 53.8191 58.294C53.1611 58.294 52.5871 58.14 52.0971 57.832C51.6211 57.524 51.2991 57.153 51.1311 56.719L51.3411 56.425C51.5371 56.817 51.8171 57.146 52.1811 57.412C52.5591 57.678 53.0281 57.811 53.5881 57.811C54.3721 57.811 54.9811 57.566 55.4151 57.076C55.8491 56.586 56.1501 55.935 56.3181 55.123C56.5001 54.297 56.5911 53.387 56.5911 52.393C56.5911 51.273 56.5001 50.356 56.3181 49.642C56.1361 48.928 55.8631 48.396 55.4991 48.046C55.1351 47.696 54.6871 47.521 54.1551 47.521C53.4691 47.521 52.8461 47.808 52.2861 48.382C51.7261 48.942 51.3691 49.796 51.2151 50.944L50.9631 50.65C51.1171 49.46 51.5371 48.536 52.2231 47.878C52.9231 47.22 53.7561 46.891 54.7221 46.891Z" fill="#1B1B1A"/>
<path d="M24.526 31.364C24.982 31.364 25.36 31.418 25.66 31.526C25.96 31.622 26.206 31.748 26.398 31.904C26.554 32.024 26.68 32.156 26.776 32.3C26.872 32.444 26.944 32.588 26.992 32.732C27.04 32.876 27.064 33.014 27.064 33.146C27.064 33.446 26.956 33.68 26.74 33.848C26.536 34.016 26.308 34.1 26.056 34.1C25.816 34.1 25.6 34.022 25.408 33.866C25.216 33.71 25.12 33.488 25.12 33.2C25.12 32.936 25.21 32.714 25.39 32.534C25.57 32.342 25.798 32.234 26.074 32.21C26.026 32.054 25.876 31.922 25.624 31.814C25.384 31.694 25.078 31.634 24.706 31.634C24.094 31.634 23.59 31.82 23.194 32.192C22.81 32.552 22.618 33.08 22.618 33.776C22.618 34.112 22.678 34.454 22.798 34.802C22.93 35.15 23.176 35.492 23.536 35.828C23.74 35.792 23.95 35.768 24.166 35.756C24.382 35.732 24.544 35.72 24.652 35.72C24.868 35.72 25.042 35.756 25.174 35.828C25.306 35.9 25.372 36.002 25.372 36.134C25.372 36.242 25.324 36.326 25.228 36.386C25.144 36.446 25.024 36.476 24.868 36.476C24.64 36.476 24.4 36.428 24.148 36.332C23.896 36.224 23.698 36.14 23.554 36.08C22.858 36.284 22.294 36.62 21.862 37.088C21.43 37.544 21.214 38.192 21.214 39.032C21.214 39.86 21.43 40.562 21.862 41.138C22.294 41.714 22.87 42.158 23.59 42.47C24.322 42.77 25.138 42.92 26.038 42.92C26.674 42.92 27.274 42.848 27.838 42.704C28.414 42.548 28.918 42.326 29.35 42.038C29.794 41.75 30.142 41.408 30.394 41.012C30.646 40.604 30.772 40.142 30.772 39.626C30.772 39.398 30.724 39.11 30.628 38.762C30.532 38.402 30.334 38.054 30.034 37.718C29.734 37.37 29.272 37.1 28.648 36.908L28.864 36.728C29.74 36.992 30.364 37.418 30.736 38.006C31.108 38.582 31.294 39.23 31.294 39.95C31.294 40.67 31.078 41.36 30.646 42.02C30.214 42.68 29.59 43.22 28.774 43.64C27.958 44.048 26.968 44.252 25.804 44.252C25.024 44.252 24.28 44.15 23.572 43.946C22.876 43.742 22.258 43.448 21.718 43.064C21.178 42.668 20.752 42.194 20.44 41.642C20.128 41.09 19.972 40.466 19.972 39.77C19.972 39.122 20.098 38.57 20.35 38.114C20.602 37.646 20.914 37.262 21.286 36.962C21.658 36.662 22.03 36.434 22.402 36.278C22.774 36.11 23.074 35.996 23.302 35.936C22.906 35.756 22.57 35.546 22.294 35.306C22.03 35.054 21.826 34.784 21.682 34.496C21.55 34.196 21.484 33.902 21.484 33.614C21.484 33.326 21.55 33.05 21.682 32.786C21.814 32.51 22.006 32.264 22.258 32.048C22.51 31.832 22.822 31.664 23.194 31.544C23.578 31.424 24.022 31.364 24.526 31.364ZM31.078 31.004C31.822 31.004 32.446 31.22 32.95 31.652C33.454 32.072 33.706 32.666 33.706 33.434C33.706 33.842 33.628 34.208 33.472 34.532C33.328 34.844 33.124 35.12 32.86 35.36C32.608 35.6 32.32 35.798 31.996 35.954C31.72 36.086 31.354 36.23 30.898 36.386C30.454 36.542 29.974 36.698 29.458 36.854C28.954 37.01 28.468 37.166 28 37.322C27.544 37.466 27.172 37.592 26.884 37.7C26.44 37.868 26.062 38.078 25.75 38.33C25.45 38.57 25.3 38.882 25.3 39.266C25.3 39.578 25.39 39.842 25.57 40.058C25.75 40.274 25.966 40.436 26.218 40.544C26.482 40.652 26.728 40.706 26.956 40.706C27.064 40.706 27.196 40.694 27.352 40.67C27.52 40.634 27.67 40.586 27.802 40.526C27.934 40.466 28.012 40.394 28.036 40.31C27.844 40.274 27.652 40.19 27.46 40.058C27.28 39.914 27.19 39.692 27.19 39.392C27.19 39.104 27.286 38.876 27.478 38.708C27.67 38.54 27.904 38.456 28.18 38.456C28.468 38.456 28.696 38.546 28.864 38.726C29.044 38.906 29.134 39.14 29.134 39.428C29.134 39.764 29.02 40.052 28.792 40.292C28.576 40.52 28.3 40.694 27.964 40.814C27.64 40.922 27.316 40.976 26.992 40.976C26.656 40.976 26.314 40.904 25.966 40.76C25.618 40.616 25.33 40.394 25.102 40.094C24.874 39.782 24.76 39.374 24.76 38.87C24.76 38.45 24.85 38.078 25.03 37.754C25.222 37.43 25.504 37.142 25.876 36.89C26.248 36.638 26.704 36.422 27.244 36.242C27.604 36.122 28.042 35.99 28.558 35.846C29.074 35.702 29.602 35.546 30.142 35.378C30.694 35.21 31.192 35.024 31.636 34.82C32.236 34.544 32.644 34.262 32.86 33.974C33.076 33.686 33.184 33.392 33.184 33.092C33.184 32.744 33.088 32.438 32.896 32.174C32.704 31.898 32.446 31.682 32.122 31.526C31.81 31.358 31.468 31.274 31.096 31.274C30.952 31.274 30.832 31.286 30.736 31.31C30.64 31.334 30.58 31.376 30.556 31.436C30.724 31.52 30.85 31.64 30.934 31.796C31.018 31.952 31.06 32.108 31.06 32.264C31.06 32.516 30.958 32.726 30.754 32.894C30.562 33.062 30.328 33.146 30.052 33.146C29.824 33.146 29.608 33.074 29.404 32.93C29.2 32.774 29.098 32.546 29.098 32.246C29.098 31.934 29.2 31.688 29.404 31.508C29.62 31.328 29.878 31.202 30.178 31.13C30.49 31.046 30.79 31.004 31.078 31.004Z" fill="#1B1B1A"/>
<path d="M59.232 17.344V17.984C58.5067 18.0053 57.9627 18.0907 57.6 18.24C57.2373 18.368 56.992 18.624 56.864 19.008C56.7573 19.3707 56.704 19.9467 56.704 20.736V36.608C56.704 37.376 56.7573 37.952 56.864 38.336C56.992 38.72 57.2373 38.976 57.6 39.104C57.9627 39.232 58.5067 39.3173 59.232 39.36V40C58.6987 39.9573 58.0373 39.936 57.248 39.936C56.4587 39.9147 55.6587 39.904 54.848 39.904C53.952 39.904 53.1093 39.9147 52.32 39.936C51.5307 39.936 50.9013 39.9573 50.432 40V39.36C51.1573 39.3173 51.7013 39.232 52.064 39.104C52.448 38.976 52.704 38.72 52.832 38.336C52.96 37.952 53.024 37.376 53.024 36.608V19.104L53.184 19.168L45.312 40.128H44.8L36.544 19.392V35.776C36.544 36.672 36.608 37.376 36.736 37.888C36.864 38.3787 37.1413 38.7307 37.568 38.944C37.9947 39.1573 38.6453 39.296 39.52 39.36V40C39.1147 39.9573 38.592 39.936 37.952 39.936C37.3333 39.9147 36.7467 39.904 36.192 39.904C35.6587 39.904 35.1253 39.9147 34.592 39.936C34.0587 39.936 33.6213 39.9573 33.28 40V39.36C33.984 39.296 34.5173 39.168 34.88 38.976C35.2427 38.7627 35.488 38.4107 35.616 37.92C35.744 37.4293 35.808 36.7573 35.808 35.904V20.736C35.808 19.9467 35.744 19.3707 35.616 19.008C35.488 18.624 35.2427 18.368 34.88 18.24C34.5173 18.0907 33.984 18.0053 33.28 17.984V17.344C33.6213 17.3653 34.0587 17.3867 34.592 17.408C35.1253 17.4293 35.6587 17.44 36.192 17.44C36.8107 17.44 37.4293 17.4293 38.048 17.408C38.688 17.3867 39.232 17.3653 39.68 17.344L46.752 35.52L46.144 35.936L53.088 17.44C53.3653 17.44 53.6533 17.44 53.952 17.44C54.2507 17.44 54.5493 17.44 54.848 17.44C55.6587 17.44 56.4587 17.4293 57.248 17.408C58.0373 17.3867 58.6987 17.3653 59.232 17.344Z" fill="#1B1B1A"/>
<path d="M10.48 16.96C11.6107 16.96 12.4747 17.088 13.072 17.344C13.6693 17.6 14.192 17.8773 14.64 18.176C14.896 18.3253 15.0987 18.4427 15.248 18.528C15.4187 18.592 15.5787 18.624 15.728 18.624C15.9413 18.624 16.0907 18.5067 16.176 18.272C16.2827 18.0373 16.368 17.6853 16.432 17.216H17.168C17.1467 17.6 17.1147 18.0587 17.072 18.592C17.0507 19.104 17.0293 19.7867 17.008 20.64C17.008 21.4933 17.008 22.6133 17.008 24H16.272C16.208 22.9547 15.9733 21.9413 15.568 20.96C15.184 19.9787 14.608 19.1787 13.84 18.56C13.0933 17.9413 12.1333 17.632 10.96 17.632C9.872 17.632 8.96533 17.9627 8.24 18.624C7.536 19.264 7.184 20.1173 7.184 21.184C7.184 22.1227 7.41867 22.912 7.888 23.552C8.35733 24.1707 8.99733 24.7573 9.808 25.312C10.64 25.8453 11.5787 26.4427 12.624 27.104C13.6907 27.7867 14.6507 28.4693 15.504 29.152C16.3573 29.8133 17.0293 30.5493 17.52 31.36C18.0107 32.1707 18.256 33.152 18.256 34.304C18.256 35.6907 17.9253 36.8427 17.264 37.76C16.624 38.656 15.76 39.328 14.672 39.776C13.584 40.224 12.3893 40.448 11.088 40.448C9.89333 40.448 8.944 40.32 8.24 40.064C7.536 39.808 6.93867 39.5413 6.448 39.264C5.97867 38.9653 5.616 38.816 5.36 38.816C5.14667 38.816 4.98667 38.9333 4.88 39.168C4.79467 39.4027 4.72 39.7547 4.656 40.224H3.92C3.96267 39.7547 3.984 39.2107 3.984 38.592C4.00533 37.952 4.016 37.12 4.016 36.096C4.03733 35.072 4.048 33.7813 4.048 32.224H4.784C4.86933 33.5467 5.104 34.784 5.488 35.936C5.89333 37.088 6.50133 38.016 7.312 38.72C8.144 39.4027 9.24267 39.744 10.608 39.744C11.3333 39.744 12.0053 39.6053 12.624 39.328C13.2427 39.0507 13.744 38.6133 14.128 38.016C14.512 37.4187 14.704 36.6507 14.704 35.712C14.704 34.8373 14.4907 34.0693 14.064 33.408C13.6587 32.7467 13.0827 32.1387 12.336 31.584C11.6107 31.008 10.7573 30.4213 9.776 29.824C8.77333 29.184 7.83467 28.544 6.96 27.904C6.08533 27.264 5.38133 26.5173 4.848 25.664C4.336 24.8107 4.08 23.7973 4.08 22.624C4.08 21.3227 4.37867 20.256 4.976 19.424C5.59467 18.592 6.384 17.9733 7.344 17.568C8.32533 17.1627 9.37067 16.96 10.48 16.96Z" fill="#1B1B1A"/>
<path d="M24.005 25L23.68 23.11C23.4742 23.04 23.2575 22.945 23.03 22.825C22.8025 22.705 22.6021 22.58 22.4288 22.45L20.5112 23.26L19 20.8L20.755 19.615C20.7333 19.525 20.7198 19.4225 20.7144 19.3075C20.709 19.1925 20.7063 19.09 20.7063 19C20.7063 18.91 20.709 18.8075 20.7144 18.6925C20.7198 18.5775 20.7333 18.475 20.755 18.385L19 17.2L20.5112 14.74L22.4288 15.55C22.6021 15.42 22.8025 15.295 23.03 15.175C23.2575 15.055 23.4742 14.965 23.68 14.905L24.005 13H26.995L27.32 14.89C27.5258 14.96 27.7452 15.0525 27.9781 15.1675C28.211 15.2825 28.4088 15.41 28.5713 15.55L30.4887 14.74L32 17.2L30.245 18.355C30.2667 18.455 30.2802 18.5625 30.2856 18.6775C30.291 18.7925 30.2937 18.9 30.2937 19C30.2937 19.1 30.291 19.205 30.2856 19.315C30.2802 19.425 30.2667 19.53 30.245 19.63L32 20.8L30.4887 23.26L28.5713 22.45C28.3979 22.58 28.2002 22.7075 27.9781 22.8325C27.756 22.9575 27.5367 23.05 27.32 23.11L26.995 25H24.005ZM25.5 20.95C26.085 20.95 26.5833 20.76 26.995 20.38C27.4067 20 27.6125 19.54 27.6125 19C27.6125 18.46 27.4067 18 26.995 17.62C26.5833 17.24 26.085 17.05 25.5 17.05C24.915 17.05 24.4167 17.24 24.005 17.62C23.5933 18 23.3875 18.46 23.3875 19C23.3875 19.54 23.5933 20 24.005 20.38C24.4167 20.76 24.915 20.95 25.5 20.95ZM25.5 20.05C25.1858 20.05 24.9177 19.9475 24.6956 19.7425C24.4735 19.5375 24.3625 19.29 24.3625 19C24.3625 18.71 24.4735 18.4625 24.6956 18.2575C24.9177 18.0525 25.1858 17.95 25.5 17.95C25.8142 17.95 26.0823 18.0525 26.3044 18.2575C26.5265 18.4625 26.6375 18.71 26.6375 19C26.6375 19.29 26.5265 19.5375 26.3044 19.7425C26.0823 19.9475 25.8142 20.05 25.5 20.05ZM24.785 24.1H26.215L26.4425 22.42C26.8 22.34 27.1385 22.215 27.4581 22.045C27.7777 21.875 28.0675 21.67 28.3275 21.43L30.05 22.12L30.7 21.04L29.1725 20.005C29.2158 19.835 29.251 19.6675 29.2781 19.5025C29.3052 19.3375 29.3188 19.17 29.3188 19C29.3188 18.83 29.3079 18.6625 29.2863 18.4975C29.2646 18.3325 29.2267 18.165 29.1725 17.995L30.7 16.96L30.05 15.88L28.3275 16.57C28.0783 16.31 27.7967 16.0925 27.4825 15.9175C27.1683 15.7425 26.8217 15.63 26.4425 15.58L26.215 13.9H24.785L24.5575 15.58C24.1892 15.65 23.8452 15.77 23.5256 15.94C23.206 16.11 22.9217 16.32 22.6725 16.57L20.95 15.88L20.3 16.96L21.8275 17.995C21.7842 18.165 21.749 18.3325 21.7219 18.4975C21.6948 18.6625 21.6813 18.83 21.6813 19C21.6813 19.17 21.6948 19.3375 21.7219 19.5025C21.749 19.6675 21.7842 19.835 21.8275 20.005L20.3 21.04L20.95 22.12L22.6725 21.43C22.9325 21.67 23.2223 21.875 23.5419 22.045C23.8615 22.215 24.2 22.34 24.5575 22.42L24.785 24.1Z" fill="#AB8E1D"/>
<path d="M33.005 16L32.68 14.11C32.4742 14.04 32.2575 13.945 32.03 13.825C31.8025 13.705 31.6021 13.58 31.4288 13.45L29.5112 14.26L28 11.8L29.755 10.615C29.7333 10.525 29.7198 10.4225 29.7144 10.3075C29.709 10.1925 29.7063 10.09 29.7063 10C29.7063 9.91 29.709 9.8075 29.7144 9.6925C29.7198 9.5775 29.7333 9.475 29.755 9.385L28 8.2L29.5112 5.74L31.4288 6.55C31.6021 6.42 31.8025 6.295 32.03 6.175C32.2575 6.055 32.4742 5.965 32.68 5.905L33.005 4H35.995L36.32 5.89C36.5258 5.96 36.7452 6.0525 36.9781 6.1675C37.211 6.2825 37.4088 6.41 37.5713 6.55L39.4887 5.74L41 8.2L39.245 9.355C39.2667 9.455 39.2802 9.5625 39.2856 9.6775C39.291 9.7925 39.2937 9.9 39.2937 10C39.2937 10.1 39.291 10.205 39.2856 10.315C39.2802 10.425 39.2667 10.53 39.245 10.63L41 11.8L39.4887 14.26L37.5713 13.45C37.3979 13.58 37.2002 13.7075 36.9781 13.8325C36.756 13.9575 36.5367 14.05 36.32 14.11L35.995 16H33.005ZM34.5 11.95C35.085 11.95 35.5833 11.76 35.995 11.38C36.4067 11 36.6125 10.54 36.6125 10C36.6125 9.46 36.4067 9 35.995 8.62C35.5833 8.24 35.085 8.05 34.5 8.05C33.915 8.05 33.4167 8.24 33.005 8.62C32.5933 9 32.3875 9.46 32.3875 10C32.3875 10.54 32.5933 11 33.005 11.38C33.4167 11.76 33.915 11.95 34.5 11.95ZM34.5 11.05C34.1858 11.05 33.9177 10.9475 33.6956 10.7425C33.4735 10.5375 33.3625 10.29 33.3625 10C33.3625 9.71 33.4735 9.4625 33.6956 9.2575C33.9177 9.0525 34.1858 8.95 34.5 8.95C34.8142 8.95 35.0823 9.0525 35.3044 9.2575C35.5265 9.4625 35.6375 9.71 35.6375 10C35.6375 10.29 35.5265 10.5375 35.3044 10.7425C35.0823 10.9475 34.8142 11.05 34.5 11.05ZM33.785 15.1H35.215L35.4425 13.42C35.8 13.34 36.1385 13.215 36.4581 13.045C36.7777 12.875 37.0675 12.67 37.3275 12.43L39.05 13.12L39.7 12.04L38.1725 11.005C38.2158 10.835 38.251 10.6675 38.2781 10.5025C38.3052 10.3375 38.3188 10.17 38.3188 10C38.3188 9.83 38.3079 9.6625 38.2863 9.4975C38.2646 9.3325 38.2267 9.165 38.1725 8.995L39.7 7.96L39.05 6.88L37.3275 7.57C37.0783 7.31 36.7967 7.0925 36.4825 6.9175C36.1683 6.7425 35.8217 6.63 35.4425 6.58L35.215 4.9H33.785L33.5575 6.58C33.1892 6.65 32.8452 6.77 32.5256 6.94C32.206 7.11 31.9217 7.32 31.6725 7.57L29.95 6.88L29.3 7.96L30.8275 8.995C30.7842 9.165 30.749 9.3325 30.7219 9.4975C30.6948 9.6625 30.6813 9.83 30.6813 10C30.6813 10.17 30.6948 10.3375 30.7219 10.5025C30.749 10.6675 30.7842 10.835 30.8275 11.005L29.3 12.04L29.95 13.12L31.6725 12.43C31.9325 12.67 32.2223 12.875 32.5419 13.045C32.8615 13.215 33.2 13.34 33.5575 13.42L33.785 15.1Z" fill="#AB8E1D"/>
<path d="M18.39 13L18.04 10.9525C17.8183 10.8767 17.585 10.7738 17.34 10.6438C17.095 10.5138 16.8792 10.3783 16.6925 10.2375L14.6275 11.115L13 8.45L14.89 7.16625C14.8667 7.06875 14.8521 6.95771 14.8462 6.83313C14.8404 6.70854 14.8375 6.5975 14.8375 6.5C14.8375 6.4025 14.8404 6.29146 14.8462 6.16688C14.8521 6.04229 14.8667 5.93125 14.89 5.83375L13 4.55L14.6275 1.885L16.6925 2.7625C16.8792 2.62167 17.095 2.48625 17.34 2.35625C17.585 2.22625 17.8183 2.12875 18.04 2.06375L18.39 0H21.61L21.96 2.0475C22.1817 2.12333 22.4179 2.22354 22.6688 2.34813C22.9196 2.47271 23.1325 2.61083 23.3075 2.7625L25.3725 1.885L27 4.55L25.11 5.80125C25.1333 5.90958 25.1479 6.02604 25.1537 6.15062C25.1596 6.27521 25.1625 6.39167 25.1625 6.5C25.1625 6.60833 25.1596 6.72208 25.1537 6.84125C25.1479 6.96042 25.1333 7.07417 25.11 7.1825L27 8.45L25.3725 11.115L23.3075 10.2375C23.1208 10.3783 22.9079 10.5165 22.6688 10.6519C22.4296 10.7873 22.1933 10.8875 21.96 10.9525L21.61 13H18.39ZM20 8.6125C20.63 8.6125 21.1667 8.40667 21.61 7.995C22.0533 7.58333 22.275 7.085 22.275 6.5C22.275 5.915 22.0533 5.41667 21.61 5.005C21.1667 4.59333 20.63 4.3875 20 4.3875C19.37 4.3875 18.8333 4.59333 18.39 5.005C17.9467 5.41667 17.725 5.915 17.725 6.5C17.725 7.085 17.9467 7.58333 18.39 7.995C18.8333 8.40667 19.37 8.6125 20 8.6125ZM20 7.6375C19.6617 7.6375 19.3729 7.52646 19.1337 7.30438C18.8946 7.08229 18.775 6.81417 18.775 6.5C18.775 6.18583 18.8946 5.91771 19.1337 5.69562C19.3729 5.47354 19.6617 5.3625 20 5.3625C20.3383 5.3625 20.6271 5.47354 20.8663 5.69562C21.1054 5.91771 21.225 6.18583 21.225 6.5C21.225 6.81417 21.1054 7.08229 20.8663 7.30438C20.6271 7.52646 20.3383 7.6375 20 7.6375ZM19.23 12.025H20.77L21.015 10.205C21.4 10.1183 21.7646 9.98292 22.1088 9.79875C22.4529 9.61458 22.765 9.3925 23.045 9.1325L24.9 9.88L25.6 8.71L23.955 7.58875C24.0017 7.40458 24.0396 7.22313 24.0688 7.04438C24.0979 6.86563 24.1125 6.68417 24.1125 6.5C24.1125 6.31583 24.1008 6.13438 24.0775 5.95563C24.0542 5.77688 24.0133 5.59542 23.955 5.41125L25.6 4.29L24.9 3.12L23.045 3.8675C22.7767 3.58583 22.4733 3.35021 22.135 3.16063C21.7967 2.97104 21.4233 2.84917 21.015 2.795L20.77 0.975H19.23L18.985 2.795C18.5883 2.87083 18.2179 3.00083 17.8737 3.185C17.5296 3.36917 17.2233 3.59667 16.955 3.8675L15.1 3.12L14.4 4.29L16.045 5.41125C15.9983 5.59542 15.9604 5.77688 15.9312 5.95563C15.9021 6.13438 15.8875 6.31583 15.8875 6.5C15.8875 6.68417 15.9021 6.86563 15.9312 7.04438C15.9604 7.22313 15.9983 7.40458 16.045 7.58875L14.4 8.71L15.1 9.88L16.955 9.1325C17.235 9.3925 17.5471 9.61458 17.8913 9.79875C18.2354 9.98292 18.6 10.1183 18.985 10.205L19.23 12.025Z" fill="#AB8E1D"/>
</svg>
