<svg width="126" height="28" viewBox="0 0 126 28" fill="none" xmlns="http://www.w3.org/2000/svg">
<g clip-path="url(#clip0_251_206)">
<path d="M116.397 15.564C116.397 15.3005 116.454 15.034 116.57 14.7614C116.684 14.4899 116.853 14.2405 117.075 14.0123C117.295 13.7842 117.575 13.5964 117.911 13.447C118.247 13.2976 118.636 13.2229 119.079 13.2229C119.52 13.2229 119.902 13.2976 120.221 13.447C120.54 13.5964 120.805 13.7842 121.018 14.0123C121.229 14.2405 121.388 14.4899 121.494 14.7614C121.601 15.034 121.653 15.3005 121.653 15.564H116.397ZM123.434 19.2984C123.149 19.5094 122.698 19.7587 122.079 20.0485C121.459 20.3372 120.655 20.4826 119.663 20.4826C118.653 20.4826 117.861 20.2322 117.287 19.7325C116.712 19.2327 116.414 18.6502 116.397 17.9839H125.264V17.353C125.264 16.3182 125.133 15.3662 124.867 14.4989C124.602 13.6307 124.207 12.8857 123.685 12.2628C123.164 11.6409 122.521 11.1543 121.76 10.804C120.999 10.4526 120.115 10.278 119.106 10.278C118.097 10.278 117.194 10.4577 116.397 10.8171C115.601 11.1765 114.928 11.654 114.379 12.2497C113.831 12.8463 113.411 13.5429 113.119 14.3415C112.827 15.139 112.68 15.9678 112.68 16.826C112.68 17.8083 112.835 18.7068 113.145 19.5225C113.455 20.3372 113.906 21.0348 114.499 21.6133C115.092 22.1918 115.814 22.644 116.663 22.9681C117.513 23.2922 118.468 23.4547 119.531 23.4547C120.327 23.4547 121.034 23.379 121.653 23.2306C122.274 23.0812 122.809 22.9106 123.261 22.7177C123.712 22.5249 124.079 22.328 124.361 22.1261C124.645 21.9242 124.857 21.7799 124.999 21.692L123.434 19.2984ZM81.1173 19.7456C80.8696 19.9213 80.6047 20.0747 80.3214 20.206C80.0381 20.3372 79.7018 20.4038 79.3125 20.4038C78.7989 20.4038 78.4228 20.2413 78.1843 19.9162C77.9449 19.5922 77.8256 19.1318 77.8256 18.5362V13.6701H81.0388V10.698H77.8256V7.39268H74.003V10.698H72.0321V13.6701H74.003V18.3252C74.003 19.0975 74.0825 19.7981 74.2415 20.4301C74.4015 21.0611 74.6665 21.6002 75.0384 22.0474C75.4094 22.4946 75.8965 22.8449 76.4978 23.0993C77.1 23.3527 77.844 23.481 78.7285 23.481C80.144 23.481 81.4546 23.0075 82.6581 22.0605L81.1173 19.7456ZM114.215 6.3064C113.649 5.83292 113.021 5.49977 112.331 5.30695C111.64 5.11412 110.958 5.0172 110.286 5.0172C109.65 5.0172 109.025 5.11816 108.414 5.32007C107.804 5.52198 107.26 5.82888 106.781 6.24078C106.303 6.65268 105.919 7.17361 105.627 7.80559C105.335 8.43656 105.188 9.1907 105.188 10.067V10.698H103.171V13.6701H105.188V23.0337H108.984V13.6701H111.932V10.698H108.984V10.0145C108.984 9.40069 109.144 8.92721 109.463 8.59406C109.781 8.26191 110.206 8.09433 110.737 8.09433C111.073 8.09433 111.4 8.14682 111.719 8.25182C112.038 8.35782 112.331 8.50723 112.596 8.69905L114.215 6.3064ZM97.4135 23.0337H101.236V10.698H99.3243H97.4135V23.0337ZM84.0889 23.0337H95.7371V19.785H88.098V5.49068H84.0889V23.0337ZM62.2499 15.564C62.2499 15.3005 62.307 15.034 62.4222 14.7614C62.5373 14.4899 62.7055 14.2405 62.9266 14.0123C63.1477 13.7842 63.427 13.5964 63.7633 13.447C64.0996 13.2976 64.4889 13.2229 64.9311 13.2229C65.3734 13.2229 65.7546 13.2976 66.0725 13.447C66.3915 13.5964 66.6575 13.7842 66.8694 14.0123C67.0814 14.2405 67.2414 14.4899 67.3474 14.7614C67.4534 15.034 67.5064 15.3005 67.5064 15.564H62.2499ZM69.2857 19.2984C69.0024 19.5094 68.5509 19.7587 67.9313 20.0485C67.3117 20.3372 66.5066 20.4826 65.5151 20.4826C64.5062 20.4826 63.7144 20.2322 63.1396 19.7325C62.5638 19.2327 62.2673 18.6502 62.2499 17.9839H71.117V17.353C71.117 16.3182 70.9845 15.3662 70.7195 14.4989C70.4536 13.6307 70.0592 12.8857 69.5374 12.2628C69.0156 11.6409 68.3736 11.1543 67.6124 10.804C66.8521 10.4526 65.9665 10.278 64.9576 10.278C63.9487 10.278 63.0469 10.4577 62.2499 10.8171C61.454 11.1765 60.7804 11.654 60.2321 12.2497C59.6829 12.8463 59.263 13.5429 58.9715 14.3415C58.6791 15.139 58.5333 15.9678 58.5333 16.826C58.5333 17.8083 58.6872 18.7068 58.998 19.5225C59.3068 20.3372 59.7583 21.0348 60.3514 21.6133C60.9445 22.1918 61.666 22.644 62.5149 22.9681C63.3648 23.2922 64.3207 23.4547 65.3826 23.4547C66.1795 23.4547 66.8868 23.379 67.5064 23.2306C68.126 23.0812 68.662 22.9106 69.1135 22.7177C69.5639 22.5249 69.9318 22.328 70.2141 22.1261C70.4974 21.9242 70.7104 21.7799 70.852 21.692L69.2857 19.2984ZM38.5144 23.0337H42.337L42.7884 11.6449L46.6651 18.4049H48.7358L52.3994 11.5662L52.9039 23.0337H56.913L56.0896 5.49068H52.2659L47.7534 13.7226L43.1339 5.49068H39.3368L38.5144 23.0337ZM99.3243 9.28762C98.1442 9.28762 97.1699 8.32249 97.1699 7.15241C97.1699 5.98234 98.1442 5.0172 99.3243 5.0172C100.535 5.0172 101.48 5.95306 101.48 7.15241C101.48 8.32249 100.505 9.28762 99.3243 9.28762Z" fill="#52397D"/>
<path d="M14.9463 9.35318C17.9536 13.2975 19.738 18.21 19.738 23.5384C19.738 24.8236 19.6331 26.0845 19.4323 27.3152H28.1394C28.8965 27.3152 29.51 26.7054 29.51 25.9533V2.10659C29.51 1.21818 28.6652 0.560963 27.8 0.787102C22.6006 2.14697 18.1004 5.21602 14.9463 9.35318Z" fill="#52397D"/>
<path d="M10.4598 27.3147C10.2601 26.0851 10.1541 24.8241 10.1541 23.538C10.1541 18.2105 11.9395 13.297 14.9458 9.35269C11.7918 5.21553 7.29148 2.14649 2.0921 0.787624C1.2269 0.561485 0.38208 1.2177 0.38208 2.1061V25.9538C0.38208 26.7049 0.996588 27.3147 1.75377 27.3147H10.4598Z" fill="#52397D"/>
<path d="M14.9463 9.35318C11.939 13.2975 10.1545 18.21 10.1545 23.5384C10.1545 24.8236 10.2595 26.0845 10.4603 27.3152H19.4323C19.6331 26.0845 19.738 24.8236 19.738 23.5384C19.738 18.21 17.9536 13.2975 14.9463 9.35318Z" fill="#302544"/>
</g>
<defs>
<clipPath id="clip0_251_206">
<rect width="125.646" height="27.3301" fill="white" transform="translate(0 0.363525)"/>
</clipPath>
</defs>
</svg>
