<svg width="193" height="180" viewBox="0 0 193 180" fill="none" xmlns="http://www.w3.org/2000/svg">
<mask id="mask0_163_1486" style="mask-type:alpha" maskUnits="userSpaceOnUse" x="0" y="0" width="193" height="180">
<rect width="193" height="180" fill="#D9D9D9"/>
</mask>
<g mask="url(#mask0_163_1486)">
<path d="M155.869 108.363C150.629 105.744 140.804 105.713 140.388 105.713C139.142 105.713 138.132 106.723 138.132 107.969C138.132 109.215 139.142 110.225 140.388 110.225C142.923 110.225 150.284 110.616 153.851 112.399C154.175 112.561 154.519 112.637 154.858 112.637C155.686 112.637 156.483 112.18 156.878 111.39C157.435 110.276 156.983 108.921 155.869 108.363Z" fill="#FF0093"/>
<path d="M167.116 140.481L157.799 137.819C157.397 137.704 157.116 137.332 157.116 136.914V133.804C157.874 133.279 158.597 132.691 159.273 132.035C162.548 128.856 164.352 124.593 164.352 120.029V115.738L165.253 113.937C166.242 111.959 166.764 109.745 166.764 107.534V95.909C166.764 94.6631 165.754 93.6531 164.508 93.6531H142.8C134.906 93.6531 128.484 100.075 128.484 107.969V108.104C128.484 109.942 128.919 111.783 129.741 113.427L130.896 115.738V119.422C130.896 125.262 133.774 130.501 138.132 133.654L138.133 136.913C138.133 137.416 138.133 137.624 136.27 138.156L131.724 139.455L118.574 134.673C118.621 134.053 118.411 133.421 117.959 132.946L113.757 128.531V121.12C114.201 120.754 114.639 120.378 115.063 119.98C120.364 115.011 123.405 107.996 123.405 100.733V94.8141C125.005 91.3308 125.817 87.6447 125.817 83.8485V59.7289C125.817 58.483 124.807 57.473 123.561 57.473H89.7924C77.9085 57.473 68.2405 67.1413 68.2405 79.0249V83.8491C68.2405 87.6453 69.0517 91.3314 70.6525 94.8147V99.9072C70.6525 108.34 74.402 115.937 80.3006 120.946V128.531L76.0984 132.946C75.6457 133.422 75.4364 134.053 75.4836 134.673L61.6041 139.72C60.5983 140.086 59.6637 140.581 58.8152 141.181L56.6358 140.092C63.1236 137.268 65.1788 133.296 65.2775 133.098C65.5951 132.464 65.5951 131.716 65.2775 131.081C63.6512 127.828 63.4542 121.866 63.296 117.076C63.2433 115.481 63.1934 113.975 63.098 112.633C62.3289 101.813 54.1032 93.6531 43.9638 93.6531C33.8245 93.6531 25.5984 101.813 24.8296 112.633C24.7343 113.975 24.6844 115.482 24.6317 117.077C24.4735 121.867 24.2762 127.828 22.6502 131.081C22.3326 131.715 22.3326 132.463 22.6502 133.098C22.7488 133.295 24.7999 137.259 31.3007 140.087L25.2468 143.113C22.0104 144.733 20 147.986 20 151.604V168.27C20 169.516 21.01 170.526 22.2559 170.526C23.5017 170.526 24.5117 169.516 24.5117 168.27V151.604C24.5117 149.705 25.5666 147.998 27.2645 147.149L34.8029 143.38L37.4252 145.872C39.2587 147.614 41.6108 148.485 43.9638 148.485C46.3163 148.485 48.6696 147.614 50.5025 145.872L53.1244 143.38L55.5824 144.609C54.425 146.461 53.7681 148.633 53.7681 150.908V168.27C53.7681 169.516 54.7781 170.526 56.024 170.526C57.2698 170.526 58.2798 169.516 58.2798 168.27V150.908C58.2798 147.811 60.2352 145.019 63.1459 143.961L77.7795 138.639L83.8712 147.777C84.6499 148.946 85.8979 149.695 87.295 149.833C87.4508 149.849 87.6057 149.856 87.7603 149.856C88.9929 149.856 90.1735 149.371 91.056 148.489L94.7724 144.772V168.271C94.7724 169.516 95.7824 170.526 97.0283 170.526C98.2741 170.526 99.2841 169.516 99.2841 168.271V144.772L103.001 148.489C103.883 149.371 105.063 149.856 106.296 149.856C106.451 149.856 106.606 149.849 106.761 149.834C108.159 149.695 109.407 148.946 110.185 147.778L116.277 138.64L130.911 143.961C133.821 145.02 135.777 147.811 135.777 150.908V168.271C135.777 169.517 136.787 170.527 138.033 170.527C139.278 170.527 140.288 169.517 140.288 168.271V150.908C140.288 147.772 139.042 144.83 136.952 142.655L137.509 142.495C138.071 142.335 138.838 142.115 139.608 141.737L145.368 147.497V168.271C145.368 169.517 146.378 170.527 147.624 170.527C148.87 170.527 149.88 169.517 149.88 168.271V147.497L155.599 141.777C155.903 141.932 156.223 142.063 156.559 142.159L165.876 144.82C168.003 145.428 169.488 147.397 169.488 149.609V168.271C169.488 169.517 170.498 170.527 171.744 170.527C172.99 170.527 174 169.517 174 168.271V149.609C174 145.393 171.169 141.639 167.116 140.481ZM34.4721 136.497C30.2524 134.978 28.1358 132.954 27.2323 131.849C27.8483 130.238 28.2477 128.394 28.5181 126.447C29.7622 129.43 31.8457 131.976 34.4721 133.793V136.497ZM47.3952 142.602C45.4711 144.43 42.4569 144.43 40.5334 142.602L38.4355 140.608C38.7895 139.945 38.9841 139.193 38.9841 138.405V136.001C40.5578 136.492 42.2307 136.758 43.9644 136.758C45.696 136.758 47.3681 136.491 48.9445 136.002L48.9442 138.405C48.9442 139.193 49.1385 139.945 49.4928 140.609L47.3952 142.602ZM43.965 132.246C37.2288 132.246 31.7488 126.766 31.7488 120.03C31.7488 118.784 30.7388 117.774 29.493 117.774C29.3666 117.774 29.2433 117.787 29.1227 117.807C29.1293 117.613 29.1356 117.419 29.1422 117.227C29.1925 115.675 29.2409 114.21 29.3302 112.954C29.6184 108.9 31.2381 105.165 33.891 102.436C36.5676 99.682 40.1451 98.1654 43.9644 98.1654C47.7838 98.1654 51.361 99.682 54.0379 102.436C56.6908 105.165 58.3105 108.9 58.5987 112.954C58.6877 114.21 58.7364 115.675 58.7875 117.226C58.7921 117.359 58.7966 117.494 58.8011 117.628C56.3467 113.847 52.5563 111.06 47.6586 109.486C43.134 108.033 39.2425 108.122 39.0783 108.127C38.4875 108.143 37.9269 108.39 37.5169 108.816L33.4467 113.037C32.582 113.934 32.6078 115.362 33.5048 116.227C34.4017 117.091 35.8298 117.065 36.6946 116.169L40.0814 112.656C42.998 112.799 52.3815 113.89 56.0309 121.926C55.1126 127.848 50.0228 132.246 43.965 132.246ZM53.4556 136.504L53.4559 133.814C56.0802 132.007 58.1667 129.465 59.4117 126.46C59.6821 128.402 60.0812 130.243 60.696 131.849C59.7976 132.944 57.671 134.986 53.4556 136.504ZM75.1642 99.9069V94.31C75.1642 93.9704 75.0875 93.635 74.9398 93.3292C73.4882 90.3231 72.7522 87.1337 72.7522 83.8491V79.0252C72.7522 69.6291 80.3966 61.985 89.7924 61.985H121.305V83.8494C121.305 87.134 120.569 90.3234 119.117 93.3295C118.97 93.6353 118.893 93.9707 118.893 94.3103V100.733C118.893 106.843 116.437 112.509 111.978 116.689C111.421 117.211 110.843 117.7 110.246 118.155C110.233 118.164 110.22 118.174 110.207 118.184C106.029 121.355 100.913 122.897 95.5689 122.551C84.1269 121.81 75.1642 111.864 75.1642 99.9069ZM87.8659 145.298C87.8502 145.314 87.8138 145.351 87.7401 145.343C87.6668 145.336 87.6379 145.293 87.6255 145.274L80.6098 134.75L82.8675 132.378L93.5106 139.653L87.8659 145.298ZM97.0286 136.593L84.8123 128.242V124.031C87.9733 125.74 91.5125 126.809 95.2768 127.052C95.8715 127.091 96.4625 127.11 97.0517 127.11C101.365 127.11 105.517 126.079 109.245 124.122V128.242L97.0286 136.593ZM106.432 145.275C106.419 145.293 106.39 145.336 106.317 145.344C106.243 145.353 106.207 145.314 106.191 145.299L100.547 139.654L111.19 132.379L113.448 134.751L106.432 145.275ZM147.624 143.371L142.505 138.252C142.594 137.847 142.644 137.402 142.644 136.912L142.644 135.96C144.064 136.427 145.562 136.703 147.111 136.75C147.285 136.755 147.457 136.757 147.631 136.757C149.343 136.757 151.014 136.499 152.604 136.005V136.914C152.604 137.364 152.661 137.804 152.767 138.228L147.624 143.371ZM156.131 128.797C153.74 131.118 150.581 132.343 147.247 132.24C140.719 132.044 135.408 126.294 135.408 119.423V115.206C135.408 114.855 135.326 114.51 135.169 114.197L133.776 111.41C133.265 110.389 132.996 109.246 132.996 108.104V107.969C132.996 102.563 137.394 98.1651 142.8 98.1651H162.252V107.534C162.252 109.049 161.894 110.565 161.217 111.919L160.079 114.197C159.922 114.51 159.84 114.855 159.84 115.206V120.03C159.84 123.362 158.523 126.476 156.131 128.797Z" fill="#FF0093"/>
<path d="M162.096 151.542C160.85 151.542 159.84 152.552 159.84 153.798V168.27C159.84 169.516 160.85 170.526 162.096 170.526C163.342 170.526 164.352 169.516 164.352 168.27V153.798C164.352 152.552 163.342 151.542 162.096 151.542Z" fill="#FF0093"/>
<path d="M31.904 154.524C30.6582 154.524 29.6482 155.534 29.6482 156.78V168.27C29.6482 169.516 30.6582 170.526 31.904 170.526C33.1499 170.526 34.1599 169.516 34.1599 168.27V156.78C34.1599 155.534 33.1499 154.524 31.904 154.524Z" fill="#FF0093"/>
<path d="M115.508 84.6663C106.976 76.1343 89.1247 77.7655 81.8451 78.8627C79.5523 79.2083 77.8884 81.1487 77.8884 83.4764V88.6733C77.8884 89.9191 78.8984 90.9292 80.1442 90.9292C81.3901 90.9292 82.4001 89.9191 82.4001 88.6733V83.4761C82.4001 83.3994 82.4506 83.3338 82.518 83.3236C85.4256 82.8854 91.1955 82.2092 97.1736 82.6077C104.208 83.0761 109.303 84.8419 112.318 87.8564C113.199 88.7374 114.627 88.7374 115.508 87.8564C116.389 86.9754 116.389 85.547 115.508 84.6663Z" fill="#FF0093"/>
<path d="M70.4964 156.366C69.2505 156.366 68.2405 157.376 68.2405 158.622V168.27C68.2405 169.516 69.2505 170.526 70.4964 170.526C71.7422 170.526 72.7522 169.516 72.7522 168.27V158.622C72.7522 157.376 71.7422 156.366 70.4964 156.366Z" fill="#FF0093"/>
<path d="M123.561 156.366C122.315 156.366 121.305 157.376 121.305 158.622V168.27C121.305 169.516 122.315 170.526 123.561 170.526C124.807 170.526 125.817 169.516 125.817 168.27V158.622C125.817 157.376 124.807 156.366 123.561 156.366Z" fill="#FF0093"/>
</g>
</svg>
