<svg width="139" height="24" viewBox="0 0 139 24" fill="none" xmlns="http://www.w3.org/2000/svg">
<path fill-rule="evenodd" clip-rule="evenodd" d="M13.242 12.4773C13.242 12.3045 13.2481 11.9652 13.2481 11.9652C8.13493 11.1652 4.43975 8.96997 4.3376 6.38905C3.07873 7.95437 2.36446 9.74688 2.36446 11.6569C2.36446 17.2771 8.55292 21.8822 16.4188 22.2926C14.5966 21.1475 13.242 17.1851 13.242 12.4773V12.4773ZM0 12.0669C0 5.77825 7.85005 0.679443 17.5343 0.679443C27.2182 0.679443 35.0686 5.77825 35.0686 12.0669C35.0686 18.3556 27.2181 23.4546 17.5343 23.4546C7.85005 23.4546 0 18.3555 0 12.0669V12.0669ZM21.5841 9.09167C25.2222 8.5243 27.7687 7.22234 27.7687 5.70732C27.7687 3.67389 23.1861 2.0274 17.5343 2.0274C11.8821 2.0274 7.29989 3.67403 7.29989 5.70732C7.29989 7.22234 9.84598 8.5243 13.4845 9.09167C14.0746 5.15013 15.6652 2.32289 17.5343 2.32289C19.4038 2.32289 20.9939 5.14999 21.5841 9.09167ZM18.6498 22.2925C26.5154 21.8822 32.7047 17.277 32.7047 11.6567C32.7047 9.74688 31.9896 7.95437 30.7307 6.38891C30.6284 8.96983 26.9342 11.1651 21.8205 11.9651C21.8205 11.9651 21.8268 12.3044 21.8268 12.4771C21.8269 17.185 20.4713 21.1474 18.6498 22.2925H18.6498ZM19.9645 9.28437C19.5762 6.7563 18.6346 4.97169 17.5343 4.97169C16.434 4.97169 15.4925 6.7563 15.1038 9.28437C16.7461 9.41883 18.3644 9.42099 19.9645 9.28437V9.28437ZM14.9142 12.171C14.9785 15.8319 16.1263 18.752 17.5343 18.752C18.9417 18.752 20.0898 15.8321 20.1549 12.171C18.356 12.3269 16.5998 12.3267 14.9142 12.171V12.171Z" fill="#52397D"/>
<path fill-rule="evenodd" clip-rule="evenodd" d="M79.1538 20.3751H82.8843V14.1434L89.3015 3.96366H85.0066L81.0191 10.8618L77.0323 3.96366H72.7359L79.1538 14.1434V20.3751ZM55.1048 12.0669C55.1048 7.26026 59.0141 3.36353 63.8361 3.36353C68.6579 3.36353 72.5668 7.26012 72.5668 12.0669C72.5668 16.8741 68.6579 20.7702 63.8361 20.7702C59.0141 20.7702 55.1048 16.8741 55.1048 12.0669V12.0669ZM63.8361 17.5788C66.5277 17.5788 68.7107 15.1108 68.7107 12.0669C68.7107 9.02312 66.5279 6.55483 63.8361 6.55483C61.1441 6.55483 58.9612 9.02312 58.9612 12.0669C58.9612 15.1107 61.1441 17.5788 63.8361 17.5788V17.5788ZM49.0325 20.3751H45.354V6.98983H40.2219V3.96366H54.164V6.98983H49.0325V20.3751ZM126.42 16.6826L125.006 20.3752H120.71L127.501 3.96353H132.079L138.871 20.3752H134.575L133.16 16.6826L126.42 16.6826ZM129.807 7.9067H129.775L127.476 13.9131H132.105L129.807 7.9067ZM116.839 20.3751H113.161V6.98983H108.029V3.96366H121.97V6.98983H116.839V20.3751ZM89.4716 12.0669C89.4716 7.26026 93.3811 3.36353 98.2014 3.36353C103.024 3.36353 106.933 7.26012 106.933 12.0669C106.933 16.8741 103.024 20.7702 98.2014 20.7702C93.3811 20.7702 89.4716 16.8741 89.4716 12.0669ZM98.2014 17.5788C100.894 17.5788 103.077 15.1108 103.077 12.0669C103.077 9.02312 100.894 6.55483 98.2014 6.55483C95.5104 6.55483 93.328 9.02312 93.328 12.0669C93.328 15.1107 95.5104 17.5788 98.2014 17.5788Z" fill="#52397D"/>
</svg>
